<svg width="20" height="20" viewBox="0 0 20 20" fill="none" xmlns="http://www.w3.org/2000/svg">
<g clip-path="url(#clip0_108_4534)">
<mask id="mask0_108_4534" style="mask-type:luminance" maskUnits="userSpaceOnUse" x="0" y="0" width="20" height="20">
<path d="M0 20L20 20L20 0L0 0L0 20Z" fill="white"/>
</mask>
<g mask="url(#mask0_108_4534)">
<path d="M0.294899 100C0.102199 80.575 0.0312978 65.2944 0.00679779 49.9941L49.998 -0.000999451L30.5098 -0.000999451C53.1689 -0.0187995 72.3054 -0.0309043 100 0.303696L100 100L0.294899 100ZM20.0029 -0.000999451H30.5098C26.9545 0.00180055 23.3125 0.00409752 19.5371 0.00589752C19.692 0.00229752 19.8472 -0.000999451 20.0029 -0.000999451ZM19.4863 0.00679779C8.6794 0.280898 0.00289917 9.1261 0.00289917 19.999L0.00289917 45.8525C-0.0122008 31.9315 0.0041 17.6851 0 0C6.9722 0.0088 13.4026 0.00969779 19.4863 0.00679779ZM0.00289917 45.8525C0.00439917 47.2353 0.00459779 48.6148 0.00679779 49.9941L0.00289917 49.9971V45.8525Z" fill="#D9D9D9"/>
</g>
</g>
<defs>
<clipPath id="clip0_108_4534">
<rect width="20" height="20" fill="white" transform="matrix(-1 0 0 -1 20 20)"/>
</clipPath>
</defs>
</svg>
