<svg width="20" height="20" viewBox="0 0 20 20" fill="none" xmlns="http://www.w3.org/2000/svg">
<mask id="mask0_200_99" style="mask-type:luminance" maskUnits="userSpaceOnUse" x="0" y="0" width="20" height="20">
<path d="M20 0L0 0L0 20L20 20L20 0Z" fill="white"/>
</mask>
<g mask="url(#mask0_200_99)">
<mask id="mask1_200_99" style="mask-type:luminance" maskUnits="userSpaceOnUse" x="0" y="0" width="20" height="20">
<path d="M20 -2.38419e-06L-2.38419e-06 -2.38419e-06L-2.38419e-06 20L20 20L20 -2.38419e-06Z" fill="white"/>
</mask>
<g mask="url(#mask1_200_99)">
<path d="M19.7054 -80.0005C19.8981 -60.5755 19.969 -45.2949 19.9935 -29.9946L-29.9978 20.0005L-10.5095 20.0005C-33.1687 20.0183 -52.3052 20.0304 -79.9998 19.6958L-79.9998 -80.0005L19.7054 -80.0005ZM-0.00264788 20.0005L-10.5095 20.0005C-6.95425 19.9977 -3.31225 19.9954 0.463152 19.9936C0.308251 19.9972 0.153052 20.0005 -0.00264788 20.0005ZM0.513952 19.9927C11.3209 19.7186 19.9974 10.8734 19.9974 0.000506877L19.9974 -25.853C20.0125 -11.932 19.9962 2.31441 20.0003 19.9995C13.0281 19.9907 6.59765 19.9898 0.513952 19.9927ZM19.9974 -25.853C19.9959 -27.2358 19.9957 -28.6153 19.9935 -29.9946L19.9974 -29.9976L19.9974 -25.853Z" fill="#D9D9D9"/>
</g>
</g>
</svg>
