<svg width="167" height="41" viewBox="0 0 167 41" fill="none" xmlns="http://www.w3.org/2000/svg">
<g clip-path="url(#clip0_105_471)">
<path d="M48.6306 28.7928H60.5826V25.1928H52.8786V11.6328H48.6306V28.7928Z" fill="white"/>
<path d="M67.6638 26.3939C65.9598 26.3939 65.0718 24.9059 65.0718 22.6739C65.0718 20.4419 65.9598 18.9299 67.6638 18.9299C69.3678 18.9299 70.2798 20.4419 70.2798 22.6739C70.2798 24.9059 69.3678 26.3939 67.6638 26.3939ZM67.6878 29.1779C71.6478 29.1779 74.2398 26.3699 74.2398 22.6739C74.2398 18.9779 71.6478 16.1699 67.6878 16.1699C63.7518 16.1699 61.1118 18.9779 61.1118 22.6739C61.1118 26.3699 63.7518 29.1779 67.6878 29.1779Z" fill="white"/>
<path d="M81.0943 33.0425C82.9183 33.0425 84.5263 32.6345 85.6063 31.6745C86.5903 30.7865 87.2383 29.4425 87.2383 27.5945V16.5065H83.4943V17.8265H83.4463C82.7263 16.7945 81.6223 16.1465 79.9903 16.1465C76.9423 16.1465 74.8303 18.6905 74.8303 22.2905C74.8303 26.0585 77.3983 28.1225 80.1583 28.1225C81.6463 28.1225 82.5823 27.5225 83.3023 26.7065H83.3983V27.9305C83.3983 29.4185 82.7023 30.2825 81.0463 30.2825C79.7503 30.2825 79.1023 29.7305 78.8863 29.0825H75.0943C75.4783 31.6505 77.7103 33.0425 81.0943 33.0425ZM81.0703 25.2185C79.6063 25.2185 78.6463 24.0185 78.6463 22.1705C78.6463 20.2985 79.6063 19.0985 81.0703 19.0985C82.7023 19.0985 83.5663 20.4905 83.5663 22.1465C83.5663 23.8745 82.7743 25.2185 81.0703 25.2185Z" fill="white"/>
<path d="M94.9368 26.3939C93.2328 26.3939 92.3448 24.9059 92.3448 22.6739C92.3448 20.4419 93.2328 18.9299 94.9368 18.9299C96.6408 18.9299 97.5528 20.4419 97.5528 22.6739C97.5528 24.9059 96.6408 26.3939 94.9368 26.3939ZM94.9608 29.1779C98.9208 29.1779 101.513 26.3699 101.513 22.6739C101.513 18.9779 98.9208 16.1699 94.9608 16.1699C91.0248 16.1699 88.3848 18.9779 88.3848 22.6739C88.3848 26.3699 91.0248 29.1779 94.9608 29.1779Z" fill="white"/>
<path d="M102.655 28.7928H106.567V16.5048H102.655V28.7928ZM102.655 14.8008H106.567V11.6328H102.655V14.8008Z" fill="white"/>
<path d="M108.264 32.8505H112.176V27.5225H112.224C112.992 28.5545 114.12 29.1785 115.704 29.1785C118.92 29.1785 121.056 26.6345 121.056 22.6505C121.056 18.9545 119.064 16.1465 115.8 16.1465C114.12 16.1465 112.92 16.8905 112.08 17.9945H112.008V16.5065H108.264V32.8505ZM114.696 26.1545C113.016 26.1545 112.056 24.7865 112.056 22.7945C112.056 20.8025 112.92 19.2905 114.624 19.2905C116.304 19.2905 117.096 20.6825 117.096 22.7945C117.096 24.8825 116.184 26.1545 114.696 26.1545Z" fill="white"/>
<path d="M127.426 29.1785C130.642 29.1785 133.018 27.7865 133.018 25.0985C133.018 21.9545 130.474 21.4025 128.314 21.0425C126.754 20.7545 125.362 20.6345 125.362 19.7705C125.362 19.0025 126.106 18.6425 127.066 18.6425C128.146 18.6425 128.89 18.9785 129.034 20.0825H132.634C132.442 17.6585 130.57 16.1465 127.09 16.1465C124.186 16.1465 121.786 17.4905 121.786 20.0825C121.786 22.9625 124.066 23.5385 126.202 23.8985C127.834 24.1865 129.322 24.3065 129.322 25.4105C129.322 26.2025 128.578 26.6345 127.402 26.6345C126.106 26.6345 125.29 26.0345 125.146 24.8105H121.45C121.57 27.5225 123.826 29.1785 127.426 29.1785Z" fill="white"/>
<path d="M138.331 29.1539C140.035 29.1539 141.115 28.4819 142.003 27.2819H142.075V28.7939H145.819V16.5059H141.907V23.3699C141.907 24.8339 141.091 25.8419 139.747 25.8419C138.499 25.8419 137.899 25.0979 137.899 23.7539V16.5059H134.011V24.5699C134.011 27.3059 135.499 29.1539 138.331 29.1539Z" fill="white"/>
<path d="M147.521 28.7945H151.433V21.9065C151.433 20.4425 152.153 19.4105 153.377 19.4105C154.553 19.4105 155.105 20.1785 155.105 21.4985V28.7945H159.017V21.9065C159.017 20.4425 159.713 19.4105 160.961 19.4105C162.137 19.4105 162.689 20.1785 162.689 21.4985V28.7945H166.601V20.8025C166.601 18.0425 165.209 16.1465 162.425 16.1465C160.841 16.1465 159.521 16.8185 158.561 18.3065H158.513C157.889 16.9865 156.665 16.1465 155.057 16.1465C153.281 16.1465 152.105 16.9865 151.337 18.2585H151.265V16.5065H147.521V28.7945Z" fill="white"/>
<path fill-rule="evenodd" clip-rule="evenodd" d="M8.65405 3.89083C7.22339 4.89119 5.92969 6.07394 4.80664 7.40536C9.39594 6.97929 15.2265 7.67501 21.9957 11.0596C29.2243 14.6738 35.0451 14.796 39.0961 14.0146C38.7285 12.9017 38.2657 11.8321 37.7176 10.8153C33.0803 11.3044 27.1353 10.657 20.2069 7.19294C15.8073 4.99314 11.9291 4.08697 8.65405 3.89083ZM35.0087 6.95961C31.3466 2.86796 26.0247 0.292969 20.1013 0.292969C18.3618 0.292969 16.674 0.515076 15.065 0.932449C17.2442 1.52705 19.5592 2.39695 21.9957 3.61523C27.0683 6.15149 31.4477 6.96812 35.0087 6.95961ZM39.9622 17.921C35.0682 18.8874 28.3101 18.6889 20.2069 14.6373C12.6313 10.8495 6.60175 10.8972 2.53522 11.8009C2.32532 11.8475 2.12036 11.8965 1.92035 11.9475C1.38794 13.1054 0.962952 14.323 0.65802 15.5874C0.983704 15.5004 1.32025 15.4177 1.66748 15.3405C6.60089 14.2442 13.5714 14.2918 21.9957 18.504C29.5714 22.2918 35.6009 22.2441 39.6675 21.3404C39.8068 21.3095 39.9441 21.2775 40.0791 21.2445C40.0939 20.9292 40.1013 20.6119 40.1013 20.2929C40.1013 19.4904 40.0541 18.6989 39.9622 17.921ZM39.4261 25.4652C34.5796 26.3125 28.0183 25.9873 20.2069 22.0817C12.6313 18.2939 6.60175 18.3416 2.53522 19.2453C1.63257 19.4458 0.820557 19.6901 0.104248 19.948C0.102295 20.0627 0.101318 20.1777 0.101318 20.2929C0.101318 31.3386 9.05561 40.2929 20.1013 40.2929C29.3584 40.2929 37.1466 34.0038 39.4261 25.4652Z" fill="#E24C4A"/>
</g>
<defs>
<clipPath id="clip0_105_471">
<rect width="167" height="41" fill="white"/>
</clipPath>
</defs>
</svg>
