<svg width="168" height="42" viewBox="0 0 168 42" fill="none" xmlns="http://www.w3.org/2000/svg">
<g clip-path="url(#clip0_105_437)">
<path d="M49.2776 29.8631H61.2296V26.2631H53.5256V12.7031H49.2776V29.8631Z" fill="white"/>
<path d="M68.3108 27.4623C66.6068 27.4623 65.7188 25.9743 65.7188 23.7423C65.7188 21.5103 66.6068 19.9983 68.3108 19.9983C70.0148 19.9983 70.9268 21.5103 70.9268 23.7423C70.9268 25.9743 70.0148 27.4623 68.3108 27.4623ZM68.3348 30.2463C72.2948 30.2463 74.8868 27.4383 74.8868 23.7423C74.8868 20.0463 72.2948 17.2383 68.3348 17.2383C64.3988 17.2383 61.7588 20.0463 61.7588 23.7423C61.7588 27.4383 64.3988 30.2463 68.3348 30.2463Z" fill="white"/>
<path d="M81.7411 34.1108C83.5651 34.1108 85.1731 33.7028 86.2531 32.7428C87.2371 31.8548 87.8851 30.5108 87.8851 28.6628V17.5748H84.1411V18.8948H84.0931C83.3731 17.8628 82.2691 17.2148 80.6371 17.2148C77.5891 17.2148 75.4771 19.7588 75.4771 23.3588C75.4771 27.1268 78.0451 29.1908 80.8051 29.1908C82.2931 29.1908 83.2291 28.5908 83.9491 27.7748H84.0451V28.9988C84.0451 30.4868 83.3491 31.3508 81.6931 31.3508C80.3971 31.3508 79.7491 30.7988 79.5331 30.1508H75.7411C76.1251 32.7188 78.3571 34.1108 81.7411 34.1108ZM81.7171 26.2868C80.2531 26.2868 79.2931 25.0868 79.2931 23.2388C79.2931 21.3668 80.2531 20.1668 81.7171 20.1668C83.3491 20.1668 84.2131 21.5588 84.2131 23.2148C84.2131 24.9428 83.4211 26.2868 81.7171 26.2868Z" fill="white"/>
<path d="M95.5835 27.4623C93.8795 27.4623 92.9915 25.9743 92.9915 23.7423C92.9915 21.5103 93.8795 19.9983 95.5835 19.9983C97.2875 19.9983 98.1995 21.5103 98.1995 23.7423C98.1995 25.9743 97.2875 27.4623 95.5835 27.4623ZM95.6075 30.2463C99.5675 30.2463 102.159 27.4383 102.159 23.7423C102.159 20.0463 99.5675 17.2383 95.6075 17.2383C91.6715 17.2383 89.0315 20.0463 89.0315 23.7423C89.0315 27.4383 91.6715 30.2463 95.6075 30.2463Z" fill="white"/>
<path d="M103.302 29.8631H107.214V17.5751H103.302V29.8631ZM103.302 15.8711H107.214V12.7031H103.302V15.8711Z" fill="white"/>
<path d="M108.911 33.9188H112.823V28.5908H112.871C113.639 29.6228 114.767 30.2468 116.351 30.2468C119.567 30.2468 121.703 27.7028 121.703 23.7188C121.703 20.0228 119.711 17.2148 116.447 17.2148C114.767 17.2148 113.567 17.9588 112.727 19.0628H112.655V17.5748H108.911V33.9188ZM115.343 27.2228C113.663 27.2228 112.703 25.8548 112.703 23.8628C112.703 21.8708 113.567 20.3588 115.271 20.3588C116.951 20.3588 117.743 21.7508 117.743 23.8628C117.743 25.9508 116.831 27.2228 115.343 27.2228Z" fill="white"/>
<path d="M128.072 30.2468C131.288 30.2468 133.664 28.8548 133.664 26.1668C133.664 23.0228 131.12 22.4708 128.96 22.1108C127.4 21.8228 126.008 21.7028 126.008 20.8388C126.008 20.0708 126.752 19.7108 127.712 19.7108C128.792 19.7108 129.536 20.0468 129.68 21.1508H133.28C133.088 18.7268 131.216 17.2148 127.736 17.2148C124.832 17.2148 122.432 18.5588 122.432 21.1508C122.432 24.0308 124.712 24.6068 126.848 24.9668C128.48 25.2548 129.968 25.3748 129.968 26.4788C129.968 27.2708 129.224 27.7028 128.048 27.7028C126.752 27.7028 125.936 27.1028 125.792 25.8788H122.096C122.216 28.5908 124.472 30.2468 128.072 30.2468Z" fill="white"/>
<path d="M138.978 30.2222C140.682 30.2222 141.762 29.5502 142.65 28.3502H142.722V29.8622H146.466V17.5742H142.554V24.4382C142.554 25.9022 141.738 26.9102 140.394 26.9102C139.146 26.9102 138.546 26.1662 138.546 24.8222V17.5742H134.658V25.6382C134.658 28.3742 136.146 30.2222 138.978 30.2222Z" fill="white"/>
<path d="M148.168 29.8628H152.08V22.9748C152.08 21.5108 152.8 20.4788 154.024 20.4788C155.2 20.4788 155.752 21.2468 155.752 22.5668V29.8628H159.664V22.9748C159.664 21.5108 160.36 20.4788 161.608 20.4788C162.784 20.4788 163.336 21.2468 163.336 22.5668V29.8628H167.248V21.8708C167.248 19.1108 165.856 17.2148 163.072 17.2148C161.488 17.2148 160.168 17.8868 159.208 19.3748H159.16C158.536 18.0548 157.312 17.2148 155.704 17.2148C153.928 17.2148 152.752 18.0548 151.984 19.3268H151.912V17.5748H148.168V29.8628Z" fill="white"/>
<path d="M25.4099 2.88784L21.4769 1.83398L18.1625 14.2036L15.1702 3.03622L11.2371 4.09008L14.4701 16.1556L6.41746 8.10296L3.53827 10.9822L12.371 19.815L1.37124 16.8676L0.317383 20.8006L12.336 24.021C12.1984 23.4275 12.1256 22.8091 12.1256 22.1737C12.1256 17.6761 15.7716 14.0301 20.2692 14.0301C24.7668 14.0301 28.4128 17.6761 28.4128 22.1737C28.4128 22.805 28.3409 23.4196 28.205 24.0096L39.1277 26.9363L40.1815 23.0033L28.1151 19.7701L39.1156 16.8225L38.0617 12.8895L25.9958 16.1225L34.0484 8.0699L31.1692 5.19071L22.459 13.901L25.4099 2.88784Z" fill="#E24C4A"/>
<path d="M28.1944 24.0547C27.8572 25.4803 27.1453 26.761 26.1685 27.7871L34.0815 35.7002L36.9607 32.821L28.1944 24.0547Z" fill="#E24C4A"/>
<path d="M26.0884 27.8691C25.0998 28.8788 23.8505 29.6323 22.4495 30.0206L25.3289 40.7666L29.2619 39.7127L26.0884 27.8691Z" fill="#E24C4A"/>
<path d="M22.3026 30.0604C21.6526 30.2275 20.9713 30.3163 20.2692 30.3163C19.517 30.3163 18.7886 30.2143 18.0971 30.0234L15.2151 40.7792L19.1481 41.833L22.3026 30.0604Z" fill="#E24C4A"/>
<path d="M17.958 29.9841C16.5784 29.5765 15.3513 28.8134 14.3829 27.8008L6.45044 35.7333L9.32963 38.6125L17.958 29.9841Z" fill="#E24C4A"/>
<path d="M14.3168 27.7311C13.365 26.7121 12.6717 25.4485 12.3417 24.0449L1.3833 26.9812L2.43715 30.9142L14.3168 27.7311Z" fill="#E24C4A"/>
</g>
<defs>
<clipPath id="clip0_105_437">
<rect width="168" height="41" fill="white" transform="translate(0 0.910156)"/>
</clipPath>
</defs>
</svg>
