<svg width="170" height="42" viewBox="0 0 170 42" fill="none" xmlns="http://www.w3.org/2000/svg">
<g clip-path="url(#clip0_105_408)">
<path d="M51.8601 29.0467H63.8121V25.4467H56.1081V11.8867H51.8601V29.0467Z" fill="white"/>
<path d="M70.8933 26.6498C69.1893 26.6498 68.3013 25.1618 68.3013 22.9298C68.3013 20.6978 69.1893 19.1858 70.8933 19.1858C72.5973 19.1858 73.5093 20.6978 73.5093 22.9298C73.5093 25.1618 72.5973 26.6498 70.8933 26.6498ZM70.9173 29.4338C74.8773 29.4338 77.4693 26.6258 77.4693 22.9298C77.4693 19.2338 74.8773 16.4258 70.9173 16.4258C66.9813 16.4258 64.3413 19.2338 64.3413 22.9298C64.3413 26.6258 66.9813 29.4338 70.9173 29.4338Z" fill="white"/>
<path d="M84.3238 33.2944C86.1478 33.2944 87.7558 32.8864 88.8358 31.9264C89.8198 31.0384 90.4678 29.6944 90.4678 27.8464V16.7584H86.7238V18.0784H86.6758C85.9558 17.0464 84.8518 16.3984 83.2198 16.3984C80.1718 16.3984 78.0598 18.9424 78.0598 22.5424C78.0598 26.3104 80.6278 28.3744 83.3878 28.3744C84.8758 28.3744 85.8118 27.7744 86.5318 26.9584H86.6278V28.1824C86.6278 29.6704 85.9318 30.5344 84.2758 30.5344C82.9798 30.5344 82.3318 29.9824 82.1158 29.3344H78.3238C78.7078 31.9024 80.9398 33.2944 84.3238 33.2944ZM84.2998 25.4704C82.8358 25.4704 81.8758 24.2704 81.8758 22.4224C81.8758 20.5504 82.8358 19.3504 84.2998 19.3504C85.9318 19.3504 86.7958 20.7424 86.7958 22.3984C86.7958 24.1264 86.0038 25.4704 84.2998 25.4704Z" fill="white"/>
<path d="M98.166 26.6498C96.462 26.6498 95.574 25.1618 95.574 22.9298C95.574 20.6978 96.462 19.1858 98.166 19.1858C99.87 19.1858 100.782 20.6978 100.782 22.9298C100.782 25.1618 99.87 26.6498 98.166 26.6498ZM98.19 29.4338C102.15 29.4338 104.742 26.6258 104.742 22.9298C104.742 19.2338 102.15 16.4258 98.19 16.4258C94.254 16.4258 91.614 19.2338 91.614 22.9298C91.614 26.6258 94.254 29.4338 98.19 29.4338Z" fill="white"/>
<path d="M105.884 29.0467H109.796V16.7587H105.884V29.0467ZM105.884 15.0547H109.796V11.8867H105.884V15.0547Z" fill="white"/>
<path d="M111.494 33.1024H115.406V27.7744H115.454C116.222 28.8064 117.35 29.4304 118.934 29.4304C122.15 29.4304 124.286 26.8864 124.286 22.9024C124.286 19.2064 122.294 16.3984 119.03 16.3984C117.35 16.3984 116.15 17.1424 115.31 18.2464H115.238V16.7584H111.494V33.1024ZM117.926 26.4064C116.246 26.4064 115.286 25.0384 115.286 23.0464C115.286 21.0544 116.15 19.5424 117.854 19.5424C119.534 19.5424 120.326 20.9344 120.326 23.0464C120.326 25.1344 119.414 26.4064 117.926 26.4064Z" fill="white"/>
<path d="M130.655 29.4304C133.871 29.4304 136.247 28.0384 136.247 25.3504C136.247 22.2064 133.703 21.6544 131.543 21.2944C129.983 21.0064 128.591 20.8864 128.591 20.0224C128.591 19.2544 129.335 18.8944 130.295 18.8944C131.375 18.8944 132.119 19.2304 132.263 20.3344H135.863C135.671 17.9104 133.799 16.3984 130.319 16.3984C127.415 16.3984 125.015 17.7424 125.015 20.3344C125.015 23.2144 127.295 23.7904 129.431 24.1504C131.063 24.4384 132.551 24.5584 132.551 25.6624C132.551 26.4544 131.807 26.8864 130.631 26.8864C129.335 26.8864 128.519 26.2864 128.375 25.0624H124.679C124.799 27.7744 127.055 29.4304 130.655 29.4304Z" fill="white"/>
<path d="M141.561 29.4097C143.265 29.4097 144.345 28.7377 145.233 27.5377H145.305V29.0497H149.049V16.7617H145.137V23.6257C145.137 25.0897 144.321 26.0977 142.977 26.0977C141.729 26.0977 141.129 25.3537 141.129 24.0097V16.7617H137.241V24.8257C137.241 27.5617 138.729 29.4097 141.561 29.4097Z" fill="white"/>
<path d="M150.75 29.0464H154.662V22.1584C154.662 20.6944 155.382 19.6624 156.606 19.6624C157.782 19.6624 158.334 20.4304 158.334 21.7504V29.0464H162.246V22.1584C162.246 20.6944 162.942 19.6624 164.19 19.6624C165.366 19.6624 165.918 20.4304 165.918 21.7504V29.0464H169.83V21.0544C169.83 18.2944 168.438 16.3984 165.654 16.3984C164.07 16.3984 162.75 17.0704 161.79 18.5584H161.742C161.118 17.2384 159.894 16.3984 158.286 16.3984C156.51 16.3984 155.334 17.2384 154.566 18.5104H154.494V16.7584H150.75V29.0464Z" fill="white"/>
<path fill-rule="evenodd" clip-rule="evenodd" d="M20.6841 41.0468C31.7298 41.0468 40.6841 32.0925 40.6841 21.0468C40.6841 10.0012 31.7298 1.04688 20.6841 1.04688C9.63837 1.04688 0.684082 10.0012 0.684082 21.0468C0.684082 32.0925 9.63837 41.0468 20.6841 41.0468ZM26.9234 10.3637C27.2271 9.28492 26.1802 8.647 25.2241 9.32817L11.8772 18.8364C10.8403 19.5751 11.0034 21.0468 12.1222 21.0468H15.6368V21.0196H22.4866L16.9053 22.9889L14.4448 31.73C14.1411 32.8088 15.1879 33.4467 16.1441 32.7655L29.491 23.2573C30.5279 22.5186 30.3647 21.0468 29.246 21.0468H23.9162L26.9234 10.3637Z" fill="#E24C4A"/>
</g>
<defs>
<clipPath id="clip0_105_408">
<rect width="170" height="41" fill="white" transform="translate(0 0.910156)"/>
</clipPath>
</defs>
</svg>
