<svg width="140" height="141" viewBox="0 0 140 141" fill="none" xmlns="http://www.w3.org/2000/svg">
<circle cx="70" cy="70.457" r="70" fill="url(#paint0_linear_105_248)"/>
<path fill-rule="evenodd" clip-rule="evenodd" d="M77.5197 59.8505C74.7614 62.7237 69.7347 62.7249 66.9753 59.8505L65.8439 58.672L63.5812 61.029L64.7126 62.2075C66.7196 64.2982 69.4824 65.3424 72.2464 65.3436L58.2864 79.8852L60.5491 82.2423L74.5091 67.7006C74.5102 70.5797 75.5126 73.4576 77.5197 75.5483L78.6511 76.7268L80.9138 74.3698L79.7824 73.1913C77.023 70.3169 77.0241 65.0808 79.7824 62.2076L80.9138 61.029L78.6511 58.672L77.5197 59.8505Z" fill="white"/>
<path d="M75.6998 23.31C74.7461 23.1921 73.9475 22.928 73.3042 22.5177C72.6621 22.0977 72.1578 21.5926 71.7913 21.0024C71.4259 20.4025 71.1762 19.778 71.042 19.1289C70.9187 18.4714 70.8941 17.8455 70.9683 17.2513L71.0077 16.9351C71.0891 16.2834 71.2752 15.6544 71.5661 15.048C71.8583 14.4321 72.2534 13.8922 72.7515 13.4282C73.2593 12.9654 73.8647 12.6218 74.5677 12.3972C75.2815 12.1643 76.096 12.1044 77.0113 12.2174C77.965 12.3353 78.7858 12.6167 79.4737 13.0618C80.1616 13.5069 80.6828 14.0725 81.0374 14.7585C81.4028 15.4362 81.5714 16.2015 81.5431 17.0544L79.1588 16.7598C79.144 16.3298 79.0347 15.9514 78.831 15.6245C78.6272 15.2977 78.3428 15.029 77.9778 14.8184C77.6224 14.6091 77.2087 14.4752 76.7367 14.4169C76.2646 14.3586 75.8354 14.3883 75.449 14.506C75.0625 14.6237 74.7255 14.8156 74.438 15.0817C74.16 15.3491 73.9279 15.6804 73.7416 16.0759C73.5661 16.4629 73.4472 16.9056 73.385 17.404C73.324 17.8927 73.3304 18.3509 73.4042 18.7785C73.4888 19.1977 73.6372 19.5761 73.8494 19.9137C74.0724 20.243 74.3616 20.5122 74.717 20.7216C75.0736 20.9214 75.4927 21.051 75.9744 21.1105C76.7066 21.201 77.3453 21.0999 77.8905 20.8072C78.4453 20.5156 78.8146 20.065 78.9984 19.4551L81.3683 19.7479C81.1859 20.5039 80.8378 21.1762 80.3241 21.7647C79.8213 22.3449 79.175 22.7808 78.3854 23.0725C77.6066 23.3558 76.7114 23.435 75.6998 23.31Z" fill="white"/>
<path d="M86.2155 25.8839C85.5598 25.643 85.0139 25.3293 84.5779 24.9427C84.1452 24.547 83.8169 24.1072 83.5928 23.6235C83.3779 23.143 83.2634 22.6429 83.2494 22.123C83.2387 21.594 83.3275 21.0759 83.5158 20.5685L83.6318 20.256C83.8235 19.7396 84.0961 19.2838 84.4497 18.8887C84.8158 18.4878 85.242 18.1759 85.7283 17.9531C86.2237 17.7335 86.7633 17.6178 87.3473 17.6058C87.9346 17.5847 88.5425 17.6896 89.1708 17.9204C89.8174 18.1579 90.3525 18.4728 90.776 18.8652C91.2121 19.2518 91.5421 19.687 91.7661 20.1708C91.9902 20.6546 92.1104 21.1672 92.1268 21.7085C92.1466 22.2408 92.0606 22.7651 91.869 23.2815L91.753 23.5941C91.5647 24.1014 91.2938 24.5527 90.9402 24.9478C90.5899 25.3339 90.1716 25.6384 89.6853 25.8613C89.2082 26.0875 88.6759 26.2111 88.0886 26.2322C87.5046 26.2442 86.8803 26.1281 86.2155 25.8839ZM86.8963 24.0493C87.3243 24.2065 87.7131 24.2464 88.0627 24.1689C88.4122 24.0914 88.7204 23.9163 88.9871 23.6437C89.263 23.3744 89.4749 23.0404 89.6228 22.6418C89.7808 22.216 89.8413 21.8161 89.8042 21.4422C89.7704 21.0592 89.6431 20.719 89.4223 20.4217C89.2106 20.1278 88.8998 19.9055 88.49 19.755C88.0893 19.6078 87.7079 19.5758 87.3459 19.6591C86.9839 19.7423 86.6649 19.9185 86.3891 20.1878C86.1257 20.4514 85.915 20.7961 85.757 21.2219C85.609 21.6205 85.5474 22.0096 85.5721 22.3893C85.5967 22.769 85.7212 23.1029 85.9453 23.3912C86.1695 23.6794 86.4865 23.8988 86.8963 24.0493Z" fill="white"/>
<path d="M92.2021 28.1012L96.4368 21.3728L98.0042 22.3491L96.1882 25.2345L96.0772 25.1653C96.5099 24.4777 96.9569 23.9586 97.4182 23.6078C97.8877 23.2622 98.3756 23.0875 98.8818 23.0838C99.3881 23.0802 99.9004 23.2398 100.419 23.5626L100.505 23.6165C101.295 24.1085 101.733 24.7404 101.82 25.5124C101.921 26.2813 101.643 27.1855 100.989 28.225L98.5706 32.0681L96.5959 30.838L99.0841 26.8845C99.3108 26.5243 99.3892 26.163 99.3196 25.8006C99.2499 25.4381 99.034 25.1442 98.672 24.9186C98.3017 24.688 97.9267 24.6196 97.5469 24.7135C97.1805 24.8043 96.8789 25.038 96.6419 25.4145L94.1768 29.3312L92.2021 28.1012Z" fill="white"/>
<path d="M102.856 35.9429C102.253 35.4116 101.83 34.9104 101.588 34.4393C101.353 33.9609 101.302 33.4714 101.436 32.9707C101.585 32.4691 101.926 31.9182 102.46 31.3181L107.112 26.09L108.736 27.5207L104.026 32.8139C103.775 33.0959 103.655 33.3769 103.665 33.6567C103.689 33.9358 103.839 34.1969 104.115 34.4402L104.999 35.218L103.696 36.6823L102.856 35.9429ZM103.649 28.1673L104.779 26.8983L109.052 30.6624L107.923 31.9315L103.649 28.1673Z" fill="white"/>
<path d="M108.083 41.5458L109.9 40.0494L109.649 39.7481L111.624 38.1223C111.938 37.8637 112.111 37.5953 112.144 37.3172C112.178 37.0391 112.058 36.7364 111.786 36.409C111.65 36.2454 111.466 36.0327 111.236 35.771C111.006 35.5094 110.765 35.2433 110.515 34.973C110.265 34.7026 110.037 34.4582 109.83 34.2399L111.344 32.9929C111.501 33.1517 111.683 33.3402 111.89 33.5585C112.097 33.7768 112.306 34.0057 112.518 34.245C112.73 34.4844 112.926 34.7119 113.105 34.9276C113.625 35.5526 113.972 36.1509 114.145 36.7228C114.325 37.3021 114.324 37.8542 114.143 38.3791C113.97 38.8979 113.599 39.3913 113.031 39.8593L109.262 42.9631L108.083 41.5458ZM106.301 39.7223C105.936 39.2834 105.692 38.8319 105.571 38.3678C105.456 37.9111 105.466 37.4697 105.603 37.0435C105.748 36.6112 106.025 36.2257 106.437 35.887C106.885 35.5175 107.348 35.3311 107.824 35.3277C108.307 35.3181 108.79 35.4663 109.271 35.772C109.76 36.0716 110.23 36.493 110.682 37.036L111.768 38.3417L110.77 39.1638L109.674 37.847C109.414 37.5345 109.135 37.3574 108.835 37.3156C108.549 37.2751 108.276 37.3627 108.014 37.5782C107.767 37.7814 107.633 38.0295 107.613 38.3225C107.605 38.6168 107.732 38.9201 107.992 39.2326C108.159 39.4335 108.341 39.5843 108.538 39.6851C108.749 39.7872 108.984 39.8195 109.243 39.782C109.501 39.7445 109.79 39.607 110.109 39.3694L110.013 40.1629C109.556 40.4767 109.111 40.6682 108.677 40.7372C108.249 40.8137 107.832 40.7679 107.428 40.5996C107.029 40.4388 106.654 40.1463 106.301 39.7223Z" fill="white"/>
<path d="M111.937 47.9459C111.602 47.3468 111.406 46.7695 111.351 46.2143C111.309 45.6628 111.375 45.1454 111.55 44.6622C111.724 44.179 111.983 43.7482 112.327 43.3699C112.679 42.987 113.084 42.6687 113.542 42.415L113.784 42.2812C114.259 42.0182 114.755 41.8429 115.273 41.7552C115.799 41.6629 116.314 41.6705 116.819 41.778C117.323 41.8855 117.796 42.1046 118.236 42.4354C118.682 42.7747 119.065 43.2312 119.386 43.805C119.735 44.4295 119.921 45.0503 119.944 45.6675C119.976 46.28 119.856 46.8495 119.584 47.3759C119.311 47.9024 118.905 48.3374 118.364 48.6812L117.252 46.6939C117.547 46.4863 117.739 46.2142 117.829 45.8773C117.931 45.5443 117.869 45.1752 117.643 44.7701C117.454 44.4326 117.211 44.1969 116.914 44.063C116.621 43.9375 116.296 43.9021 115.938 43.9568C115.579 44.0114 115.197 44.1515 114.79 44.3769C114.416 44.5836 114.105 44.8221 113.857 45.0924C113.616 45.358 113.473 45.6475 113.426 45.9609C113.392 46.2779 113.477 46.6179 113.68 46.9808C113.831 47.2508 114.005 47.4528 114.202 47.5868C114.413 47.7245 114.633 47.8013 114.864 47.8171C115.109 47.8366 115.352 47.7956 115.595 47.6941L116.7 49.6687C116.109 49.9628 115.51 50.0842 114.904 50.0331C114.306 49.9773 113.747 49.7727 113.228 49.4195C112.716 49.0616 112.286 48.5704 111.937 47.9459Z" fill="white"/>
<path d="M115.757 56.225C115.483 55.4711 115.354 54.8296 115.368 54.3008C115.392 53.7686 115.584 53.3149 115.943 52.9396C116.315 52.57 116.879 52.2492 117.637 51.9772L124.239 49.6076L124.976 51.6379L118.291 54.037C117.935 54.1649 117.694 54.354 117.568 54.6046C117.455 54.8609 117.461 55.1616 117.586 55.5068L117.986 56.6106L116.137 57.2743L115.757 56.225ZM120.2 49.7794L121.802 49.2042L123.739 54.5457L122.137 55.1209L120.2 49.7794Z" fill="white"/>
<path d="M117.737 66.9392C117.652 65.9481 117.764 65.0905 118.072 64.3665C118.39 63.6513 118.878 63.0866 119.534 62.6723C120.19 62.258 120.988 62.011 121.926 61.9314L128.208 61.3984L128.411 63.7656L122.042 64.3059C121.577 64.3453 121.179 64.4664 120.845 64.6691C120.522 64.8807 120.283 65.1578 120.127 65.5006C119.972 65.853 119.916 66.2697 119.957 66.7508C119.999 67.2416 120.126 67.6427 120.338 67.9543C120.55 68.2755 120.833 68.5084 121.187 68.6528C121.54 68.7973 121.954 68.8495 122.428 68.8092L128.797 68.2689L129 70.636L122.718 71.169C121.779 71.2486 120.952 71.1395 120.234 70.8417C119.517 70.544 118.941 70.0695 118.505 69.4183C118.079 68.7663 117.823 67.9399 117.737 66.9392Z" fill="white"/>
<path d="M117.571 77.2745C117.708 76.1529 118.047 75.3037 118.587 74.7269C119.127 74.1501 119.818 73.8933 120.661 73.9564L120.412 75.9983C120.157 76.0064 119.912 76.1276 119.678 76.3619C119.452 76.607 119.307 76.9932 119.243 77.5205C119.194 77.9232 119.221 78.2621 119.324 78.5372C119.436 78.8231 119.622 78.9818 119.882 79.0133C120.113 79.0413 120.309 78.9628 120.468 78.7778C120.637 78.5939 120.782 78.2467 120.903 77.736L121.037 77.1246C121.249 76.1872 121.602 75.5051 122.094 75.0782C122.585 74.6609 123.168 74.493 123.842 74.5747C124.401 74.6423 124.852 74.8378 125.193 75.1613C125.535 75.4848 125.773 75.9026 125.906 76.4149C126.038 76.9367 126.065 77.514 125.987 78.1467C125.863 79.1629 125.537 79.9552 125.007 80.5235C124.488 81.093 123.803 81.3409 122.951 81.2671L123.201 79.2251C123.465 79.2182 123.699 79.1102 123.9 78.9011C124.111 78.6932 124.245 78.3639 124.3 77.9134C124.343 77.5586 124.31 77.2677 124.201 77.0404C124.092 76.8132 123.922 76.6856 123.69 76.6576C123.469 76.6308 123.289 76.7015 123.151 76.8697C123.013 77.0378 122.895 77.3251 122.796 77.7315L122.663 78.3428C122.439 79.2983 122.077 80.0182 121.577 80.5026C121.078 80.987 120.462 81.1849 119.73 81.0963C119.2 81.0322 118.755 80.8324 118.395 80.497C118.045 80.1628 117.796 79.7192 117.648 79.1663C117.51 78.6145 117.485 77.9839 117.571 77.2745Z" fill="white"/>
<path d="M118.959 92.9543L121.258 91.4712L122.809 92.0606L123.529 94.6914L121.775 94.9553L121.729 93.0459L121.403 92.9218L120.102 94.3194L118.959 92.9543ZM125.428 93.1957L122.989 91.9583L122.728 90.3239L124.655 88.3893L125.748 89.7659L124.119 90.7597L124.173 91.1059L126.035 91.5344L125.428 93.1957ZM122.357 87.5156L122.497 90.236L121.207 91.281L118.559 90.5849L119.207 88.9391L120.881 89.8548L121.154 89.6327L120.601 87.8252L122.357 87.5156Z" fill="white"/>
<path d="M107.914 100.574C108.495 99.8124 109.125 99.2574 109.804 98.9093C110.491 98.5671 111.184 98.3862 111.881 98.3665C112.586 98.3528 113.254 98.4508 113.886 98.6607C114.52 98.8841 115.076 99.1767 115.556 99.5384L115.811 99.731C116.337 100.128 116.791 100.603 117.173 101.158C117.562 101.718 117.833 102.329 117.987 102.99C118.135 103.659 118.131 104.352 117.974 105.07C117.819 105.801 117.462 106.533 116.905 107.264C116.325 108.026 115.668 108.591 114.937 108.96C114.205 109.329 113.451 109.494 112.677 109.456C111.904 109.431 111.154 109.192 110.426 108.74L111.878 106.835C112.259 107.038 112.643 107.134 113.03 107.122C113.416 107.111 113.792 107.001 114.158 106.792C114.519 106.591 114.842 106.302 115.13 105.925C115.417 105.548 115.606 105.163 115.698 104.772C115.789 104.38 115.791 103.994 115.704 103.613C115.611 103.24 115.439 102.874 115.188 102.515C114.939 102.17 114.614 101.846 114.212 101.542C113.817 101.245 113.415 101.021 113.007 100.87C112.6 100.732 112.196 100.671 111.796 100.684C111.398 100.711 111.019 100.825 110.658 101.026C110.306 101.233 109.983 101.528 109.69 101.913C109.244 102.498 109.012 103.099 108.993 103.715C108.969 104.338 109.176 104.882 109.614 105.346L108.171 107.239C107.605 106.703 107.195 106.067 106.941 105.33C106.688 104.606 106.633 103.831 106.775 103.005C106.919 102.193 107.299 101.382 107.914 100.574Z" fill="white"/>
<path d="M100.399 108.345C100.936 107.9 101.481 107.586 102.036 107.403C102.597 107.228 103.143 107.164 103.677 107.213C104.202 107.267 104.695 107.418 105.155 107.666C105.621 107.921 106.028 108.256 106.376 108.672L106.59 108.928C106.944 109.351 107.205 109.813 107.372 110.315C107.539 110.831 107.598 111.354 107.549 111.885C107.493 112.421 107.324 112.944 107.043 113.454C106.768 113.97 106.373 114.442 105.859 114.868C105.329 115.307 104.787 115.611 104.234 115.78C103.68 115.963 103.136 116.03 102.603 115.982C102.07 115.933 101.563 115.781 101.084 115.525C100.61 115.276 100.196 114.94 99.8423 114.517L99.628 114.261C99.2802 113.845 99.0224 113.387 98.8548 112.885C98.6935 112.39 98.6371 111.877 98.6858 111.347C98.7271 110.823 98.8851 110.302 99.16 109.785C99.4411 109.276 99.854 108.796 100.399 108.345ZM101.656 109.848C101.306 110.138 101.077 110.453 100.97 110.793C100.863 111.133 100.862 111.486 100.966 111.852C101.063 112.225 101.248 112.574 101.521 112.9C101.813 113.249 102.131 113.501 102.475 113.656C102.826 113.818 103.185 113.878 103.555 113.836C103.916 113.8 104.265 113.643 104.601 113.365C104.929 113.093 105.147 112.781 105.256 112.427C105.364 112.073 105.37 111.711 105.273 111.338C105.175 110.98 104.98 110.626 104.688 110.277C104.414 109.951 104.106 109.703 103.763 109.535C103.42 109.367 103.067 109.307 102.704 109.356C102.341 109.406 101.992 109.569 101.656 109.848Z" fill="white"/>
<path d="M95.4841 112.402L99.2376 119.408L97.6056 120.273L95.996 117.269L96.1117 117.208C96.4952 117.924 96.7249 118.568 96.8007 119.14C96.868 119.718 96.777 120.225 96.528 120.664C96.2789 121.102 95.8845 121.465 95.3448 121.751L95.2548 121.799C94.4324 122.235 93.6632 122.298 92.9472 121.988C92.2272 121.692 91.5773 121.002 90.9974 119.92L88.8535 115.918L90.9095 114.828L93.115 118.944C93.3159 119.319 93.5917 119.567 93.9423 119.688C94.2928 119.808 94.6566 119.769 95.0335 119.569C95.419 119.364 95.6655 119.075 95.773 118.701C95.8764 118.339 95.8231 117.963 95.6131 117.571L93.4281 113.493L95.4841 112.402Z" fill="white"/>
<path d="M83.3374 117.675C84.1015 117.42 84.7491 117.307 85.2802 117.333C85.8144 117.369 86.2659 117.57 86.6348 117.936C86.9976 118.314 87.3069 118.884 87.5627 119.644L89.7912 126.265L87.7338 126.95L85.4775 120.247C85.3573 119.889 85.1728 119.645 84.924 119.514C84.669 119.396 84.3666 119.394 84.0168 119.511L82.8984 119.884L82.2742 118.029L83.3374 117.675ZM89.712 122.243L90.253 123.85L84.8402 125.653L84.2993 124.046L89.712 122.243Z" fill="white"/>
<path d="M75.8411 119.378L76.2315 121.693L76.6193 121.628L77.0434 124.142C77.1109 124.542 77.2572 124.826 77.4825 124.994C77.7077 125.162 78.0309 125.211 78.4522 125.141C78.6628 125.106 78.9396 125.055 79.2827 124.988C79.6257 124.921 79.9776 124.847 80.3382 124.767C80.6988 124.688 81.0258 124.613 81.3194 124.545L81.6447 126.473C81.4278 126.529 81.1725 126.591 80.8789 126.66C80.5853 126.729 80.2814 126.794 79.967 126.856C79.6527 126.919 79.3567 126.973 79.0791 127.019C78.2749 127.153 77.5806 127.152 76.9963 127.014C76.4025 126.879 75.9226 126.601 75.5567 126.182C75.1923 125.773 74.9491 125.207 74.827 124.483L74.0173 119.683L75.8411 119.378ZM78.3206 118.759C78.8854 118.664 79.4001 118.681 79.8647 118.809C80.3197 118.939 80.6982 119.17 81.0002 119.501C81.3038 119.842 81.4998 120.274 81.5881 120.798C81.6845 121.37 81.6149 121.861 81.3791 122.273C81.145 122.694 80.7743 123.035 80.2671 123.296C79.7615 123.566 79.1592 123.76 78.4603 123.876L76.7801 124.157L76.5656 122.885L78.2602 122.602C78.6623 122.535 78.9566 122.383 79.1431 122.147C79.3216 121.921 79.3827 121.641 79.3265 121.308C79.2734 120.994 79.1247 120.754 78.8804 120.589C78.6281 120.436 78.3008 120.392 77.8987 120.459C77.6402 120.503 77.4177 120.584 77.2311 120.703C77.0365 120.834 76.8907 121.019 76.7936 121.261C76.6965 121.502 76.6714 121.82 76.7181 122.214L76.076 121.733C76.0323 121.182 76.0892 120.703 76.2467 120.295C76.3947 119.888 76.6433 119.553 76.9925 119.289C77.3322 119.026 77.7748 118.85 78.3206 118.759Z" fill="white"/>
<path d="M68.2901 119.489C68.9792 119.501 69.5791 119.623 70.0897 119.853C70.5904 120.094 71.0073 120.41 71.3403 120.802C71.6733 121.194 71.9182 121.633 72.0748 122.119C72.2313 122.614 72.305 123.122 72.296 123.644L72.2912 123.919C72.2819 124.46 72.1856 124.975 72.0023 125.464C71.8189 125.963 71.554 126.403 71.2076 126.784C70.8612 127.164 70.4337 127.461 69.9251 127.674C69.4068 127.888 68.8176 127.989 68.1576 127.977C67.4393 127.965 66.806 127.814 66.2576 127.525C65.709 127.245 65.274 126.856 64.9525 126.358C64.631 125.859 64.4564 125.291 64.4286 124.653L66.7144 124.693C66.7471 125.051 66.8875 125.352 67.1357 125.598C67.374 125.853 67.7261 125.985 68.192 125.993C68.5802 126 68.9071 125.909 69.1725 125.72C69.4282 125.531 69.6221 125.269 69.7541 124.933C69.8861 124.597 69.9562 124.198 69.9642 123.734C69.9716 123.309 69.92 122.922 69.8096 122.572C69.6989 122.233 69.5191 121.964 69.2701 121.766C69.0112 121.578 68.6731 121.481 68.2557 121.474C67.9451 121.468 67.6821 121.517 67.4667 121.62C67.2415 121.732 67.0641 121.883 66.9346 122.074C66.7952 122.275 66.7086 122.505 66.675 122.765L64.4037 122.726C64.4442 122.07 64.6387 121.494 64.9871 120.998C65.3353 120.511 65.7934 120.132 66.3612 119.862C66.9288 119.601 67.5718 119.477 68.2901 119.489Z" fill="white"/>
<path d="M59.1609 118.632C59.954 118.773 60.5771 118.982 61.0302 119.259C61.4815 119.546 61.7807 119.938 61.9278 120.435C62.0636 120.94 62.0604 121.587 61.9182 122.376L60.6795 129.249L58.5439 128.868L59.798 121.91C59.8648 121.539 59.8207 121.237 59.6656 121.003C59.4992 120.777 59.2344 120.632 58.8713 120.567L57.7103 120.36L58.0573 118.435L59.1609 118.632ZM62.5502 125.682L62.2495 127.351L56.6309 126.348L56.9316 124.68L62.5502 125.682Z" fill="white"/>
<path d="M48.8252 114.97C49.73 115.394 50.4202 115.919 50.8958 116.547C51.3584 117.18 51.6056 117.882 51.6373 118.655C51.6691 119.428 51.4846 120.238 51.0839 121.085L48.4009 126.762L46.2398 125.751L48.96 119.996C49.1583 119.576 49.2527 119.172 49.2433 118.784C49.221 118.4 49.0997 118.055 48.8795 117.749C48.6505 117.439 48.3164 117.181 47.8771 116.976C47.4291 116.766 47.0165 116.675 46.6393 116.701C46.2534 116.723 45.9091 116.85 45.6063 117.082C45.3036 117.314 45.0511 117.644 44.8487 118.072L42.1285 123.827L39.9674 122.816L42.6504 117.14C43.0511 116.292 43.5606 115.634 44.1789 115.166C44.7973 114.697 45.4989 114.439 46.2837 114.39C47.0644 114.349 47.9116 114.543 48.8252 114.97Z" fill="white"/>
<path d="M40.0053 109.698C40.9122 110.378 41.4812 111.096 41.7122 111.849C41.9433 112.603 41.8201 113.327 41.3426 114.021L39.6916 112.783C39.8126 112.559 39.8298 112.288 39.7432 111.969C39.6431 111.652 39.3798 111.334 38.9535 111.014C38.628 110.77 38.3196 110.623 38.0285 110.574C37.7238 110.527 37.4926 110.607 37.3348 110.815C37.1945 111.001 37.1649 111.208 37.2458 111.438C37.3209 111.676 37.5502 111.975 37.9337 112.335L38.3986 112.756C39.1075 113.409 39.5243 114.054 39.6488 114.692C39.7657 115.324 39.6195 115.91 39.2104 116.45C38.8714 116.897 38.4756 117.187 38.0229 117.319C37.5702 117.451 37.0877 117.446 36.5755 117.303C36.0556 117.155 35.5398 116.889 35.0282 116.506C34.2066 115.889 33.6812 115.211 33.4521 114.471C33.2171 113.738 33.3451 113.024 33.8362 112.328L35.4872 113.566C35.3604 113.798 35.3374 114.052 35.4182 114.331C35.4932 114.617 35.7128 114.897 36.0771 115.17C36.3639 115.385 36.6335 115.502 36.8859 115.522C37.1382 115.542 37.3345 115.46 37.4748 115.275C37.6092 115.097 37.6378 114.907 37.5607 114.704C37.4836 114.501 37.2929 114.255 36.9889 113.967L36.524 113.546C35.8054 112.873 35.3606 112.201 35.1895 111.529C35.0184 110.856 35.155 110.227 35.5992 109.641C35.9206 109.216 36.3174 108.934 36.7896 108.792C37.2559 108.658 37.7665 108.666 38.3214 108.816C38.8704 108.974 39.4317 109.268 40.0053 109.698Z" fill="white"/>
<path d="M25.6584 103.047L25.802 105.77L24.5145 106.813L21.8637 106.12L22.5093 104.477L24.1954 105.39L24.4665 105.171L23.8985 103.352L25.6584 103.047ZM22.2182 108.504L24.514 107.019L26.0677 107.61L26.7904 110.237L25.046 110.492L24.9935 108.592L24.6649 108.465L23.3622 109.856L22.2182 108.504ZM28.699 108.692L26.2597 107.454L25.9934 105.821L27.9215 103.886L29.0316 105.266L27.398 106.252L27.4555 106.598L29.3057 107.024L28.699 108.692Z" fill="white"/>
<path d="M24.5207 89.7149C24.8946 90.5957 25.0635 91.4158 25.0275 92.1752C24.9826 92.9384 24.7947 93.6253 24.4639 94.236C24.124 94.8505 23.705 95.3778 23.2068 95.8177C22.6958 96.2525 22.1631 96.5863 21.6086 96.8192L21.3135 96.9432C20.7054 97.1987 20.0646 97.3525 19.3913 97.4047C18.709 97.4607 18.0415 97.39 17.3886 97.1925C16.732 96.9861 16.1303 96.6361 15.5836 96.1424C15.0241 95.6436 14.565 94.9716 14.2063 94.1264C13.8325 93.2456 13.6675 92.3976 13.7114 91.5825C13.7553 90.7673 13.9874 90.0356 14.4078 89.3873C14.8154 88.7338 15.3975 88.2062 16.1543 87.8044L17.0889 90.0064C16.7219 90.234 16.4469 90.5172 16.2641 90.8561C16.0812 91.195 15.9893 91.5743 15.9883 91.994C15.9836 92.4049 16.0737 92.8283 16.2587 93.2642C16.4438 93.7001 16.6841 94.0552 16.9796 94.3294C17.2751 94.6037 17.6106 94.7982 17.986 94.913C18.3576 95.019 18.7622 95.0535 19.1996 95.0165C19.6243 94.9744 20.0692 94.8556 20.5342 94.6603C20.9903 94.4687 21.3861 94.2343 21.7216 93.9571C22.0443 93.6747 22.2997 93.3578 22.4877 93.0063C22.663 92.6496 22.753 92.2658 22.7578 91.855C22.7536 91.4479 22.6571 91.0219 22.4683 90.5771C22.1813 89.9009 21.7742 89.401 21.2469 89.0774C20.7159 88.7449 20.1389 88.6518 19.5161 88.7981L18.5872 86.6095C19.3366 86.389 20.0959 86.3531 20.865 86.5018C21.6214 86.6453 22.3238 86.9844 22.9723 87.5192C23.6081 88.0488 24.1242 88.7807 24.5207 89.7149Z" fill="white"/>
<path d="M21.5168 79.3588C21.6345 80.0442 21.6338 80.6713 21.5148 81.2402C21.3862 81.8107 21.1672 82.3133 20.8577 82.7479C20.5466 83.1731 20.1682 83.5215 19.7224 83.7932C19.267 84.0665 18.7714 84.2487 18.2356 84.3397L17.9054 84.3958C17.36 84.4885 16.8269 84.4811 16.3062 84.3736C15.7743 84.2582 15.2898 84.0466 14.8529 83.7387C14.4143 83.4214 14.044 83.014 13.742 82.5167C13.4304 82.021 13.2182 81.4447 13.1055 80.7879C12.9894 80.112 12.9965 79.4935 13.1268 78.9326C13.2458 78.3637 13.46 77.8619 13.7695 77.4273C14.079 76.9926 14.4653 76.633 14.9286 76.3486C15.3823 76.0658 15.8819 75.878 16.4274 75.7853L16.7575 75.7293C17.2934 75.6382 17.8217 75.6464 18.3424 75.7539C18.8535 75.863 19.3276 76.0715 19.7645 76.3794C20.1998 76.6777 20.5732 77.0747 20.8849 77.5704C21.1869 78.0677 21.3975 78.6639 21.5168 79.3588ZM19.5791 79.688C19.5023 79.2406 19.3428 78.8856 19.1008 78.623C18.8588 78.3604 18.5524 78.1822 18.1818 78.0884C17.8095 77.9851 17.4128 77.9692 16.9918 78.0408C16.542 78.1172 16.1636 78.2648 15.8564 78.4835C15.5397 78.7039 15.307 78.9834 15.1584 79.3222C15.0081 79.6514 14.9697 80.0303 15.0432 80.4586C15.1151 80.8775 15.2777 81.2222 15.531 81.4927C15.7842 81.7631 16.097 81.95 16.4692 82.0533C16.8303 82.1487 17.2357 82.1582 17.6855 82.0818C18.1065 82.0103 18.4762 81.8691 18.7946 81.6583C19.1129 81.4474 19.3416 81.1734 19.4807 80.8363C19.6198 80.4992 19.6526 80.1164 19.5791 79.688Z" fill="white"/>
<path d="M20.4542 73.031L12.4793 72.7509L12.5446 70.9123L15.9645 71.0324L15.9598 71.1627C15.1449 71.1341 14.4694 71.0089 13.9333 70.7871C13.3975 70.5557 13.0013 70.2229 12.7447 69.7887C12.4882 69.3545 12.3707 68.8334 12.3922 68.2254L12.3958 68.124C12.4287 67.1975 12.7593 66.5037 13.3877 66.0426C14.0067 65.5715 14.9322 65.3576 16.1643 65.4009L20.7193 65.5609L20.6371 67.8772L15.9511 67.7126C15.5243 67.6976 15.1706 67.8108 14.89 68.0522C14.6094 68.2936 14.4616 68.6266 14.4466 69.0513C14.4311 69.4856 14.5593 69.8428 14.8311 70.1229C15.0935 70.393 15.4478 70.5359 15.8941 70.5516L20.5364 70.7147L20.4542 73.031Z" fill="white"/>
<path d="M21.9446 59.9481C21.7844 60.7337 21.5599 61.3486 21.2711 61.7928C20.9729 62.2352 20.5722 62.5238 20.0692 62.6588C19.5586 62.7823 18.9085 62.7644 18.1189 62.605L11.2404 61.2162L11.6719 59.1009L18.636 60.507C19.0071 60.5819 19.3118 60.5449 19.5502 60.3959C19.781 60.2356 19.9331 59.9756 20.0065 59.6159L20.241 58.466L22.1676 58.855L21.9446 59.9481ZM14.7818 63.1581L13.1121 62.821L14.2473 57.2559L15.917 57.593L14.7818 63.1581Z" fill="white"/>
<path d="M24.216 52.6216L22.0062 51.8003L21.8686 52.1667L19.4678 51.2744C19.0858 51.1325 18.7654 51.1165 18.5065 51.2264C18.2476 51.3364 18.0434 51.5904 17.8939 51.9884C17.8192 52.1875 17.7252 52.4515 17.612 52.7806C17.4988 53.1096 17.3867 53.4494 17.2758 53.8C17.1649 54.1505 17.0659 54.4694 16.9788 54.7566L15.1373 54.0722C15.1972 53.8573 15.2707 53.6063 15.3579 53.3191C15.445 53.0319 15.5401 52.7373 15.6431 52.4354C15.7461 52.1335 15.8469 51.8513 15.9454 51.589C16.2308 50.8291 16.5794 50.2318 16.9913 49.7973C17.4066 49.3537 17.888 49.079 18.4355 48.9732C18.9739 48.864 19.5887 48.9379 20.2798 49.1948L24.8631 50.8982L24.216 52.6216ZM23.5152 55.0673C23.3147 55.6011 23.0426 56.036 22.6987 56.3722C22.3583 56.6993 21.9683 56.91 21.5287 57.0043C21.08 57.0953 20.6056 57.0478 20.1054 56.8619C19.5598 56.6592 19.1668 56.3533 18.9266 55.9444C18.6772 55.5322 18.5658 55.0423 18.5924 54.4749C18.6098 53.904 18.7426 53.2884 18.9906 52.628L19.5868 51.0403L20.8008 51.4915L20.1995 53.0928C20.0568 53.4727 20.0419 53.8022 20.1547 54.0813C20.2619 54.3479 20.4746 54.5404 20.7929 54.6587C21.093 54.7702 21.3759 54.7619 21.6416 54.6339C21.9016 54.4934 22.103 54.2332 22.2456 53.8532C22.3374 53.609 22.378 53.3766 22.3675 53.1562C22.3513 52.9234 22.2624 52.7048 22.1008 52.5004C21.9392 52.296 21.6753 52.1155 21.3093 51.9588L22.0486 51.646C22.5499 51.8838 22.9389 52.1727 23.2154 52.5126C23.4953 52.8435 23.6628 53.2253 23.7179 53.6582C23.7764 54.082 23.7088 54.5517 23.5152 55.0673Z" fill="white"/>
<path d="M27.8832 46.1064C27.5275 46.6937 27.1212 47.1493 26.6645 47.473C26.2044 47.7835 25.7204 47.9839 25.2124 48.074C24.7045 48.1641 24.2 48.1549 23.6991 48.0463C23.1899 47.9327 22.7108 47.7413 22.2618 47.4722L22.0248 47.3301C21.5592 47.051 21.1594 46.7098 20.8255 46.3067C20.4834 45.8987 20.2336 45.4502 20.0764 44.9613C19.9192 44.4724 19.8752 43.9555 19.9445 43.4108C20.0188 42.8577 20.2263 42.2999 20.567 41.7375C20.9377 41.1254 21.3865 40.6558 21.9132 40.3289C22.4316 39.997 22.988 39.8175 23.5824 39.7904C24.1768 39.7634 24.7584 39.8978 25.3272 40.1937L24.1473 42.1417C23.8196 41.9904 23.4867 41.96 23.1486 42.0504C22.8071 42.1276 22.5162 42.3647 22.2757 42.7618C22.0753 43.0927 21.9906 43.4196 22.0216 43.7426C22.0576 44.0574 22.1886 44.3558 22.4145 44.6378C22.6404 44.9197 22.9529 45.1804 23.352 45.4196C23.7178 45.6389 24.0805 45.7887 24.4399 45.8689C24.7911 45.9441 25.1149 45.924 25.4115 45.8086C25.7047 45.68 25.9591 45.4378 26.1745 45.0821C26.3348 44.8174 26.4244 44.5667 26.4432 44.3299C26.4586 44.0798 26.4158 43.8512 26.3146 43.6439C26.2101 43.4234 26.0532 43.2335 25.8437 43.0741L27.0161 41.1385C27.5664 41.5023 27.9701 41.9585 28.2272 42.5072C28.4759 43.0509 28.5755 43.635 28.526 44.2593C28.4682 44.8786 28.254 45.4943 27.8832 46.1064Z" fill="white"/>
<path d="M33.2012 38.681C32.6805 39.2927 32.1861 39.7241 31.718 39.9752C31.2425 40.22 30.7516 40.281 30.2455 40.1583C29.7382 40.022 29.1771 39.6949 28.5622 39.1768L23.2061 34.6645L24.6082 33.0173L30.031 37.5858C30.3199 37.8292 30.6049 37.9428 30.8859 37.9264C31.1658 37.8965 31.425 37.7415 31.6634 37.4614L32.4256 36.566L33.9258 37.8298L33.2012 38.681ZM25.3698 38.0629L24.0697 36.9676L27.7584 32.634L29.0586 33.7293L25.3698 38.0629Z" fill="white"/>
<path d="M41.5523 31.6178C40.7322 32.1869 39.93 32.5199 39.1457 32.6168C38.3638 32.7002 37.6284 32.5629 36.9395 32.205C36.2506 31.847 35.6368 31.2839 35.098 30.5156L31.4907 25.3711L33.4493 24.0118L37.1066 29.2276C37.3732 29.6078 37.6781 29.8908 38.0214 30.0764C38.3671 30.2487 38.728 30.3161 39.1042 30.2788C39.4884 30.2359 39.8796 30.0763 40.2777 29.8C40.6837 29.5182 40.9693 29.2081 41.1345 28.8698C41.3077 28.5259 41.3687 28.1656 41.3176 27.7889C41.2665 27.4122 41.1049 27.0298 40.8328 26.6417L37.1755 21.4259L39.1341 20.0666L42.7414 25.2112C43.2801 25.9795 43.5994 26.747 43.6991 27.5138C43.7989 28.2807 43.6744 29.0147 43.3257 29.7159C42.9715 30.4092 42.3803 31.0432 41.5523 31.6178Z" fill="white"/>
<path d="M50.5505 26.6348C49.5053 27.077 48.5967 27.2096 47.8247 27.0325C47.0527 26.8554 46.4836 26.3878 46.1173 25.6298L48.0201 24.8247C48.1546 25.0406 48.3824 25.1909 48.7034 25.2754C49.0295 25.3473 49.4382 25.2793 49.9296 25.0714C50.3048 24.9127 50.5864 24.7201 50.7744 24.4936C50.9675 24.2545 51.0128 24.0149 50.9102 23.775C50.819 23.5617 50.653 23.4325 50.4123 23.3875C50.1677 23.3335 49.7928 23.382 49.2876 23.5328L48.6886 23.7232C47.7662 24.0086 46.9962 24.0458 46.3785 23.8349C45.7698 23.6202 45.3325 23.2018 45.0665 22.5797C44.8462 22.0642 44.7915 21.5784 44.9023 21.1222C45.0132 20.666 45.2585 20.2526 45.6381 19.8821C46.0266 19.5078 46.5157 19.1959 47.1053 18.9464C48.0522 18.5458 48.9053 18.4314 49.6646 18.6034C50.42 18.7665 50.9783 19.2335 51.3394 20.0042L49.4366 20.8093C49.2983 20.5845 49.0878 20.4374 48.805 20.3682C48.5184 20.29 48.1652 20.3398 47.7453 20.5175C47.4148 20.6573 47.1778 20.831 47.0345 21.0386C46.8911 21.2462 46.8651 21.4566 46.9563 21.6699C47.0436 21.8743 47.195 21.9939 47.4103 22.0287C47.6256 22.0636 47.9349 22.0219 48.338 21.9038L48.937 21.7134C49.8811 21.4293 50.6887 21.3815 51.3599 21.5697C52.0312 21.7579 52.5112 22.1898 52.7999 22.8652C53.0089 23.354 53.0573 23.8372 52.945 24.315C52.829 24.7839 52.5671 25.22 52.1594 25.6234C51.7478 26.018 51.2115 26.3551 50.5505 26.6348Z" fill="white"/>
<path d="M63.5103 17.6193L61.0702 16.3778L60.809 14.747L62.7405 12.8126L63.8462 14.1922L62.2063 15.1856L62.2613 15.5289L64.128 15.9518L63.5103 17.6193ZM60.4893 11.9226L60.6302 14.6433L59.3372 15.6844L56.6896 14.9893L57.3429 13.3602L59.0218 14.2675L59.2962 14.048L58.7395 12.2293L60.4893 11.9226ZM57.0768 17.4069L59.3761 15.9276L60.9304 16.5174L61.6464 19.1469L59.8897 19.4107L59.8507 17.51L59.5212 17.3862L58.2234 18.7654L57.0768 17.4069Z" fill="white"/>
<defs>
<linearGradient id="paint0_linear_105_248" x1="0" y1="70.457" x2="140" y2="70.457" gradientUnits="userSpaceOnUse">
<stop stop-color="#386BB7"/>
<stop offset="1" stop-color="#E24C4A"/>
</linearGradient>
</defs>
</svg>
