<svg width="188" height="51" viewBox="0 0 188 51" fill="none" xmlns="http://www.w3.org/2000/svg">
<circle cx="25" cy="25.9102" r="25" fill="url(#paint0_linear_105_841)"/>
<path d="M21.5555 12.374L10.536 31.4688C9.82134 32.7123 9.82134 34.1987 10.536 35.435C11.2506 36.6785 12.5369 37.4217 13.9733 37.4217H17.6465C19.0615 37.4217 20.3764 36.6642 21.0838 35.435L21.3411 34.992C21.4054 35.142 21.4769 35.2921 21.5627 35.435C22.2773 36.6785 23.5636 37.4217 25 37.4217H28.6732C30.0881 37.4217 31.403 36.6642 32.1105 35.435L32.3678 34.992C32.4321 35.142 32.5036 35.2921 32.5893 35.435C33.304 36.6785 34.5903 37.4217 36.0267 37.4217C37.4631 37.4217 38.7494 36.6785 39.464 35.435C40.1787 34.1916 40.1787 32.7052 39.464 31.4688C38.7494 30.2254 37.4631 29.4822 36.0267 29.4822C35.8623 29.4822 35.698 29.4893 35.5336 29.5108L35.7909 29.0677C36.4983 27.8457 36.4983 26.3235 35.7909 25.1015L33.9543 21.9214C33.2396 20.678 31.9533 19.9348 30.5169 19.9348C30.3525 19.9348 30.1882 19.9419 30.0238 19.9634L30.2811 19.5203C30.9886 18.2983 30.9886 16.7761 30.2811 15.5541L28.4445 12.3812C27.7299 11.1377 26.4435 10.3945 25.0071 10.3945C23.5708 10.3945 22.2844 11.1377 21.5698 12.3812L21.5555 12.374ZM36.0124 31.0544C36.8771 31.0544 37.656 31.5046 38.0848 32.2549C38.5136 33.0053 38.5207 33.8986 38.0848 34.6489C37.6489 35.3993 36.8771 35.8495 36.0124 35.8495C35.1477 35.8495 34.3687 35.3993 33.94 34.6489C33.5041 33.8986 33.5041 33.0053 33.94 32.2549C34.3759 31.5046 35.1477 31.0544 36.0124 31.0544ZM30.5026 21.4998C31.3673 21.4998 32.1463 21.95 32.575 22.7004L34.4116 25.8805C34.8404 26.6165 34.8404 27.5384 34.4116 28.2745L30.7384 34.6418C30.3097 35.3779 29.5164 35.8424 28.666 35.8424H24.9929C24.1282 35.8424 23.3492 35.3921 22.9204 34.6418C22.4845 33.8914 22.4845 32.9982 22.9204 32.2478L28.4302 22.6932C28.8661 21.9429 29.6379 21.4927 30.5026 21.4927V21.4998ZM24.9929 11.9596C25.8576 11.9596 26.6365 12.4098 27.0653 13.1601L28.9019 16.3331C29.3306 17.0691 29.3306 17.991 28.9019 18.7271L27.0653 21.9143L21.5555 31.4617L19.7189 34.6418C19.2901 35.3779 18.4969 35.8424 17.6465 35.8424H13.9733C13.1086 35.8424 12.3297 35.3921 11.9009 34.6418C11.465 33.8914 11.465 32.9982 11.9009 32.2478L22.9204 13.153C23.3564 12.4026 24.1282 11.9524 24.9929 11.9524V11.9596Z" fill="white"/>
<path d="M17.6394 30.0392C17.7609 30.1107 17.8966 30.1464 18.0324 30.1464C18.304 30.1464 18.5684 30.0035 18.7113 29.7534L23.435 21.5781C23.6494 21.1993 23.5208 20.7205 23.1492 20.5061C22.7704 20.2917 22.2916 20.4204 22.0772 20.792L17.3535 28.9673C17.1391 29.346 17.2678 29.8248 17.6394 30.0392Z" fill="white"/>
<path d="M27.5657 32.0118C27.6871 32.0832 27.8229 32.119 27.9587 32.119C28.2303 32.119 28.4947 31.976 28.6376 31.7259L30.9172 27.7812C31.1316 27.4024 31.003 26.9236 30.6314 26.7092C30.2526 26.4949 29.7738 26.6235 29.5595 26.9951L27.2798 30.9398C27.0654 31.3186 27.194 31.7974 27.5657 32.0118Z" fill="white"/>
<path d="M62.2044 34.4102V16.8902H68.6604L75.2604 31.2182H76.0764L75.5964 31.6502V16.8902H79.2924V34.4102H72.7884L66.1884 20.0822H65.3724L65.8524 19.6502V34.4102H62.2044ZM88.5558 34.8662C87.4358 34.8662 86.4438 34.6742 85.5798 34.2902C84.7318 33.9062 84.0198 33.3942 83.4438 32.7542C82.8838 32.0982 82.4518 31.3702 82.1478 30.5702C81.8598 29.7542 81.7158 28.9222 81.7158 28.0742V27.5942C81.7158 26.7142 81.8598 25.8742 82.1478 25.0742C82.4518 24.2582 82.8838 23.5302 83.4438 22.8902C84.0038 22.2502 84.6998 21.7462 85.5318 21.3782C86.3798 20.9942 87.3398 20.8022 88.4118 20.8022C89.8198 20.8022 91.0038 21.1222 91.9638 21.7622C92.9398 22.3862 93.6838 23.2102 94.1958 24.2342C94.7078 25.2422 94.9638 26.3462 94.9638 27.5462V28.8422H83.3238V26.6582H92.6358L91.3878 27.6662C91.3878 26.8822 91.2758 26.2102 91.0518 25.6502C90.8278 25.0902 90.4918 24.6662 90.0438 24.3782C89.6118 24.0742 89.0678 23.9222 88.4118 23.9222C87.7398 23.9222 87.1718 24.0742 86.7078 24.3782C86.2438 24.6822 85.8918 25.1302 85.6518 25.7222C85.4118 26.2982 85.2918 27.0102 85.2918 27.8582C85.2918 28.6422 85.4038 29.3302 85.6278 29.9222C85.8518 30.4982 86.2038 30.9462 86.6838 31.2662C87.1638 31.5862 87.7878 31.7462 88.5558 31.7462C89.2598 31.7462 89.8358 31.6102 90.2838 31.3382C90.7318 31.0662 91.0358 30.7302 91.1958 30.3302H94.7238C94.5318 31.2102 94.1558 31.9942 93.5958 32.6822C93.0358 33.3702 92.3318 33.9062 91.4838 34.2902C90.6358 34.6742 89.6598 34.8662 88.5558 34.8662ZM95.4941 34.4102L99.5741 27.3542L99.4781 27.9542L95.6381 21.2582H99.7901L102.166 25.7222H102.55L104.782 21.2582H108.694L105.022 28.0022L105.118 27.4982L109.438 34.4102H105.262L102.43 29.6342H102.046L99.3821 34.4102H95.4941ZM116.774 34.5782C115.446 34.5782 114.374 34.4182 113.558 34.0982C112.742 33.7622 112.142 33.2102 111.758 32.4422C111.39 31.6582 111.206 30.6022 111.206 29.2742V17.7062H114.782V29.4182C114.782 30.0422 114.942 30.5222 115.262 30.8582C115.598 31.1782 116.07 31.3382 116.678 31.3382H118.622V34.5782H116.774ZM109.214 24.0662V21.2582H118.622V24.0662H109.214ZM120.725 34.4102V21.2582H123.773V26.9222H123.557C123.557 25.5782 123.725 24.4582 124.061 23.5622C124.397 22.6662 124.901 21.9942 125.573 21.5462C126.245 21.0822 127.069 20.8502 128.045 20.8502H128.213C129.205 20.8502 130.029 21.0822 130.685 21.5462C131.357 21.9942 131.861 22.6662 132.197 23.5622C132.549 24.4582 132.725 25.5782 132.725 26.9222H131.789C131.789 25.5782 131.957 24.4582 132.293 23.5622C132.645 22.6662 133.157 21.9942 133.829 21.5462C134.501 21.0822 135.325 20.8502 136.301 20.8502H136.469C137.461 20.8502 138.293 21.0822 138.965 21.5462C139.653 21.9942 140.173 22.6662 140.525 23.5622C140.877 24.4582 141.053 25.5782 141.053 26.9222V34.4102H137.213V26.7062C137.213 25.9862 137.021 25.4022 136.637 24.9542C136.269 24.5062 135.741 24.2822 135.053 24.2822C134.365 24.2822 133.821 24.5142 133.421 24.9782C133.021 25.4262 132.821 26.0262 132.821 26.7782V34.4102H128.957V26.7062C128.957 25.9862 128.765 25.4022 128.381 24.9542C128.013 24.5062 127.493 24.2822 126.821 24.2822C126.117 24.2822 125.565 24.5142 125.165 24.9782C124.765 25.4262 124.565 26.0262 124.565 26.7782V34.4102H120.725ZM144.47 34.4102V21.2582H148.31V34.4102H144.47ZM142.718 24.0902V21.2582H148.31V24.0902H142.718ZM145.958 19.9622C145.238 19.9622 144.702 19.7782 144.35 19.4102C144.014 19.0262 143.846 18.5462 143.846 17.9702C143.846 17.3782 144.014 16.8982 144.35 16.5302C144.702 16.1462 145.238 15.9542 145.958 15.9542C146.678 15.9542 147.206 16.1462 147.542 16.5302C147.894 16.8982 148.07 17.3782 148.07 17.9702C148.07 18.5462 147.894 19.0262 147.542 19.4102C147.206 19.7782 146.678 19.9622 145.958 19.9622ZM151.382 34.4102V21.2582H154.43V26.8982H154.214C154.214 25.5542 154.382 24.4342 154.718 23.5382C155.07 22.6422 155.598 21.9702 156.302 21.5222C157.006 21.0742 157.862 20.8502 158.87 20.8502H159.038C160.574 20.8502 161.742 21.3542 162.542 22.3622C163.358 23.3542 163.766 24.8662 163.766 26.8982V34.4102H159.926V26.6822C159.926 25.9782 159.718 25.4022 159.302 24.9542C158.886 24.5062 158.326 24.2822 157.622 24.2822C156.902 24.2822 156.318 24.5142 155.87 24.9782C155.438 25.4262 155.222 26.0182 155.222 26.7542V34.4102H151.382ZM171.982 34.8422C171.054 34.8422 170.206 34.6742 169.438 34.3382C168.686 34.0022 168.03 33.5382 167.47 32.9462C166.91 32.3382 166.478 31.6262 166.174 30.8102C165.886 29.9942 165.742 29.1142 165.742 28.1702V27.6182C165.742 26.6742 165.878 25.7942 166.15 24.9782C166.438 24.1622 166.846 23.4502 167.374 22.8422C167.918 22.2182 168.566 21.7382 169.318 21.4022C170.07 21.0502 170.91 20.8742 171.838 20.8742C172.894 20.8742 173.806 21.1062 174.574 21.5702C175.342 22.0182 175.942 22.6902 176.374 23.5862C176.806 24.4662 177.046 25.5542 177.094 26.8502L176.086 25.9142V16.8902H179.95V34.4102H176.902V28.9622H177.43C177.382 30.2102 177.118 31.2742 176.638 32.1542C176.174 33.0342 175.542 33.7062 174.742 34.1702C173.942 34.6182 173.022 34.8422 171.982 34.8422ZM172.942 31.6262C173.534 31.6262 174.07 31.4982 174.55 31.2422C175.046 30.9702 175.438 30.5782 175.726 30.0662C176.03 29.5542 176.182 28.9382 176.182 28.2182V27.3302C176.182 26.6262 176.03 26.0342 175.726 25.5542C175.422 25.0742 175.022 24.7062 174.526 24.4502C174.03 24.1942 173.494 24.0662 172.918 24.0662C172.278 24.0662 171.702 24.2342 171.19 24.5702C170.694 24.8902 170.302 25.3382 170.014 25.9142C169.726 26.4742 169.582 27.1302 169.582 27.8822C169.582 28.6502 169.726 29.3142 170.014 29.8742C170.302 30.4342 170.702 30.8662 171.214 31.1702C171.726 31.4742 172.302 31.6262 172.942 31.6262Z" fill="white"/>
<path d="M182.353 34.4102V30.1142H186.577V34.4102H182.353Z" fill="#E24C4A"/>
<defs>
<linearGradient id="paint0_linear_105_841" x1="0" y1="25.9102" x2="50" y2="25.9102" gradientUnits="userSpaceOnUse">
<stop stop-color="#386BB7"/>
<stop offset="1" stop-color="#E24C4A"/>
</linearGradient>
</defs>
</svg>
