<svg width="20" height="21" viewBox="0 0 20 21" fill="none" xmlns="http://www.w3.org/2000/svg">
<g clip-path="url(#clip0_105_1733)">
<path d="M10 20.457C15.5133 20.457 20 15.9704 20 10.457C20 4.94371 15.5134 0.457031 10 0.457031C4.48662 0.457031 0 4.94371 0 10.457C0 15.9704 4.48668 20.457 10 20.457ZM10 1.79034C14.78 1.79034 18.6667 5.677 18.6667 10.457C18.6667 15.2371 14.78 19.1237 10 19.1237C5.21996 19.1237 1.33331 15.2371 1.33331 10.457C1.33331 5.677 5.22002 1.79034 10 1.79034Z" fill="#E24C4A"/>
<path d="M12.9163 13.6437C13.0397 13.7437 13.1863 13.7904 13.333 13.7904C13.5297 13.7904 13.723 13.7037 13.853 13.5404C14.083 13.2537 14.0363 12.8337 13.7497 12.6037L10.6663 10.137V5.12369C10.6663 4.75702 10.3663 4.45703 9.99966 4.45703C9.63299 4.45703 9.33301 4.75702 9.33301 5.12369V10.457C9.33301 10.6604 9.42636 10.8504 9.583 10.977L12.9163 13.6437Z" fill="#E24C4A"/>
</g>
<defs>
<clipPath id="clip0_105_1733">
<rect width="20" height="20" fill="white" transform="translate(0 0.457031)"/>
</clipPath>
</defs>
</svg>
