<svg width="50" height="51" viewBox="0 0 50 51" fill="none" xmlns="http://www.w3.org/2000/svg">
<path d="M18.6787 8.49219L20.2144 4.5279C20.4734 3.8567 20.929 3.27937 21.5217 2.87152C22.1144 2.46367 22.8164 2.24431 23.5358 2.24219H26.4644C27.1838 2.24431 27.8858 2.46367 28.4785 2.87152C29.0712 3.27937 29.5268 3.8567 29.7858 4.5279L31.3215 8.49219L36.5358 11.4922L40.7501 10.8493C41.4518 10.7541 42.166 10.8696 42.8019 11.1812C43.4379 11.4928 43.9668 11.9864 44.3215 12.5993L45.7501 15.0993C46.1162 15.722 46.2848 16.441 46.2338 17.1615C46.1828 17.8821 45.9145 18.5702 45.4644 19.135L42.8572 22.4565V28.4565L45.5358 31.7779C45.986 32.3428 46.2542 33.0309 46.3052 33.7514C46.3562 34.4719 46.1876 35.1909 45.8215 35.8136L44.393 38.3136C44.0382 38.9265 43.5093 39.4201 42.8734 39.7317C42.2375 40.0433 41.5233 40.1589 40.8215 40.0636L36.6072 39.4208L31.393 42.4208L29.8572 46.385C29.5982 47.0562 29.1426 47.6336 28.5499 48.0414C27.9573 48.4493 27.2552 48.6686 26.5358 48.6708H23.5358C22.8164 48.6686 22.1144 48.4493 21.5217 48.0414C20.929 47.6336 20.4734 47.0562 20.2144 46.385L18.6787 42.4208L13.4644 39.4208L9.2501 40.0636C8.54837 40.1589 7.83417 40.0433 7.19825 39.7317C6.56233 39.4201 6.0334 38.9265 5.67867 38.3136L4.2501 35.8136C3.88403 35.1909 3.71537 34.4719 3.76638 33.7514C3.81739 33.0309 4.08567 32.3428 4.53581 31.7779L7.14295 28.4565V22.4565L4.46438 19.135C4.01424 18.5702 3.74596 17.8821 3.69495 17.1615C3.64394 16.441 3.8126 15.722 4.17867 15.0993L5.60724 12.5993C5.96197 11.9864 6.4909 11.4928 7.12682 11.1812C7.76274 10.8696 8.47694 10.7541 9.17867 10.8493L13.393 11.4922L18.6787 8.49219ZM17.8572 25.4565C17.8572 26.8692 18.2762 28.2502 19.061 29.4248C19.8459 30.5995 20.9615 31.515 22.2666 32.0556C23.5718 32.5962 25.008 32.7377 26.3936 32.4621C27.7792 32.1865 29.0519 31.5062 30.0509 30.5072C31.0498 29.5083 31.7301 28.2356 32.0057 26.85C32.2813 25.4644 32.1399 24.0282 31.5992 22.723C31.0586 21.4178 30.1431 20.3023 28.9685 19.5174C27.7938 18.7325 26.4128 18.3136 25.0001 18.3136C23.1057 18.3136 21.2889 19.0662 19.9493 20.4057C18.6098 21.7453 17.8572 23.5621 17.8572 25.4565V25.4565Z" stroke="#E24C4A" stroke-width="1.5" stroke-linecap="round" stroke-linejoin="round"/>
</svg>
