<svg width="50" height="51" viewBox="0 0 50 51" fill="none" xmlns="http://www.w3.org/2000/svg">
<path d="M38 5.95703H12C11.4006 5.97349 10.8135 6.13078 10.2861 6.41618C9.75875 6.70158 9.30595 7.10708 8.96432 7.59989L2.46432 16.5999C1.98166 17.2819 1.74062 18.1056 1.77944 18.9403C1.81826 19.775 2.13472 20.5727 2.67861 21.207L22.1786 43.6713C22.5124 44.1015 22.9402 44.4496 23.4292 44.6891C23.9182 44.9286 24.4555 45.0531 25 45.0531C25.5445 45.0531 26.0818 44.9286 26.5708 44.6891C27.0598 44.4496 27.4876 44.1015 27.8215 43.6713L47.3215 21.207C47.8653 20.5727 48.1818 19.775 48.2206 18.9403C48.2594 18.1056 48.0184 17.2819 47.5357 16.5999L41.0357 7.59989C40.6941 7.10708 40.2413 6.70158 39.7139 6.41618C39.1866 6.13078 38.5995 5.97349 38 5.95703V5.95703Z" stroke="#E24C4A" stroke-width="1.5" stroke-linecap="round" stroke-linejoin="round"/>
<path d="M23.143 5.92188L14.4287 19.4219L25.0001 44.9576" stroke="#E24C4A" stroke-width="1.5" stroke-linecap="round" stroke-linejoin="round"/>
<path d="M26.9643 5.92188L35.6429 19.4219L25 44.9576" stroke="#E24C4A" stroke-width="1.5" stroke-linecap="round" stroke-linejoin="round"/>
<path d="M1.85718 19.4219H48.1429" stroke="#E24C4A" stroke-width="1.5" stroke-linecap="round" stroke-linejoin="round"/>
</svg>
