<svg width="50" height="51" viewBox="0 0 50 51" fill="none" xmlns="http://www.w3.org/2000/svg">
<path d="M30.3573 18.3147C32.3298 18.3147 33.9287 16.7157 33.9287 14.7433C33.9287 12.7709 32.3298 11.1719 30.3573 11.1719C28.3849 11.1719 26.7859 12.7709 26.7859 14.7433C26.7859 16.7157 28.3849 18.3147 30.3573 18.3147Z" stroke="#E24C4A" stroke-width="1.5" stroke-linecap="round" stroke-linejoin="round"/>
<path d="M16.0716 36.1691C17.0578 36.1691 17.8573 35.3696 17.8573 34.3834C17.8573 33.3971 17.0578 32.5977 16.0716 32.5977C15.0854 32.5977 14.2859 33.3971 14.2859 34.3834C14.2859 35.3696 15.0854 36.1691 16.0716 36.1691Z" stroke="#E24C4A" stroke-width="1.5" stroke-linecap="round" stroke-linejoin="round"/>
<path d="M16.0714 23.6702C18.0439 23.6702 19.6429 22.0712 19.6429 20.0988C19.6429 18.1263 18.0439 16.5273 16.0714 16.5273C14.099 16.5273 12.5 18.1263 12.5 20.0988C12.5 22.0712 14.099 23.6702 16.0714 23.6702Z" stroke="#E24C4A" stroke-width="1.5" stroke-linecap="round" stroke-linejoin="round"/>
<path d="M34.0001 44.3136C33.9603 43.6209 33.7195 42.9547 33.3073 42.3966C32.895 41.8384 32.3291 41.4125 31.6786 41.1708C30.0633 40.6398 28.6903 39.5501 27.8066 38.0975C26.9229 36.6448 26.5863 34.9245 26.8575 33.2459C27.1286 31.5674 27.9897 30.0406 29.2859 28.94C30.5821 27.8395 32.2283 27.2375 33.9286 27.2422H40.6072C41.7527 27.2454 42.8821 26.973 43.9002 26.4481C44.9184 25.9232 45.7953 25.1612 46.4571 24.2262C47.1189 23.2913 47.5462 22.2109 47.7028 21.0762C47.8595 19.9415 47.741 18.7858 47.3572 17.7065C45.9367 13.6957 43.4412 10.1524 40.1433 7.46379C36.8455 4.77519 32.8721 3.0447 28.6573 2.46138C24.4425 1.87806 20.1485 2.46435 16.2444 4.15619C12.3402 5.84803 8.9762 8.58034 6.51977 12.0546C4.06334 15.5289 2.60903 19.6114 2.31573 23.8563C2.02242 28.1011 2.90141 32.3449 4.85665 36.124C6.81189 39.9031 9.76817 43.0721 13.4025 45.2848C17.0368 47.4975 21.2094 48.6689 25.4644 48.6708C27.5657 48.6766 29.6574 48.3881 31.6786 47.8136C32.421 47.6056 33.0639 47.1377 33.49 46.4952C33.9162 45.8527 34.0972 45.0784 34.0001 44.3136V44.3136Z" stroke="#E24C4A" stroke-width="1.5" stroke-linecap="round" stroke-linejoin="round"/>
</svg>
