<svg width="20" height="20" viewBox="0 0 20 20" fill="none" xmlns="http://www.w3.org/2000/svg">
<g clip-path="url(#clip0_778_6151)">
<path fill-rule="evenodd" clip-rule="evenodd" d="M9.76616 0.677063C9.79733 0.572301 9.89388 0.5 10.0034 0.5C10.1129 0.5 10.2095 0.572301 10.2406 0.677063C10.2406 0.677063 10.6749 2.13254 11.1403 3.69365C11.8818 6.18077 13.8274 8.12632 16.3145 8.8679C17.8756 9.33329 19.3311 9.76751 19.3311 9.76751C19.4359 9.79867 19.5081 9.89523 19.5081 10.0048C19.5081 10.1143 19.4359 10.2108 19.3311 10.242C19.3311 10.242 17.8756 10.6762 16.3145 11.1416C13.8274 11.8832 11.8818 13.8287 11.1403 16.3159C10.6749 17.877 10.2406 19.3324 10.2406 19.3324C10.2095 19.4372 10.1129 19.5095 10.0034 19.5095C9.89388 19.5095 9.79733 19.4372 9.76616 19.3324C9.76616 19.3324 9.33195 17.877 8.86655 16.3159C8.12497 13.8287 6.17942 11.8832 3.6923 11.1416C2.1312 10.6762 0.67572 10.242 0.67572 10.242C0.570952 10.2108 0.498657 10.1143 0.498657 10.0048C0.498657 9.89523 0.570952 9.79867 0.67572 9.76751C0.67572 9.76751 2.1312 9.33329 3.6923 8.8679C6.17942 8.12632 8.12497 6.18077 8.86655 3.69365C9.33195 2.13254 9.76616 0.677063 9.76616 0.677063Z" fill="#E24C4A"/>
</g>
<defs>
<clipPath id="clip0_778_6151">
<rect width="20" height="20" fill="white"/>
</clipPath>
</defs>
</svg>
