<svg width="50" height="51" viewBox="0 0 50 51" fill="none" xmlns="http://www.w3.org/2000/svg">
<path d="M11.6071 21.885C17.0313 21.885 21.4285 17.4878 21.4285 12.0636C21.4285 6.63939 17.0313 2.24219 11.6071 2.24219C6.18285 2.24219 1.78564 6.63939 1.78564 12.0636C1.78564 17.4878 6.18285 21.885 11.6071 21.885Z" stroke="#E24C4A" stroke-width="1.5" stroke-linecap="round" stroke-linejoin="round"/>
<path d="M38.3927 21.885C43.8169 21.885 48.2141 17.4878 48.2141 12.0636C48.2141 6.63939 43.8169 2.24219 38.3927 2.24219C32.9685 2.24219 28.5713 6.63939 28.5713 12.0636C28.5713 17.4878 32.9685 21.885 38.3927 21.885Z" stroke="#E24C4A" stroke-width="1.5" stroke-linecap="round" stroke-linejoin="round"/>
<path d="M11.6071 48.6702C17.0313 48.6702 21.4285 44.273 21.4285 38.8488C21.4285 33.4245 17.0313 29.0273 11.6071 29.0273C6.18285 29.0273 1.78564 33.4245 1.78564 38.8488C1.78564 44.273 6.18285 48.6702 11.6071 48.6702Z" stroke="#E24C4A" stroke-width="1.5" stroke-linecap="round" stroke-linejoin="round"/>
<path d="M38.3927 48.6702C43.8169 48.6702 48.2141 44.273 48.2141 38.8488C48.2141 33.4245 43.8169 29.0273 38.3927 29.0273C32.9685 29.0273 28.5713 33.4245 28.5713 38.8488C28.5713 44.273 32.9685 48.6702 38.3927 48.6702Z" stroke="#E24C4A" stroke-width="1.5" stroke-linecap="round" stroke-linejoin="round"/>
</svg>
