<svg width="24" height="25" viewBox="0 0 24 25" fill="none" xmlns="http://www.w3.org/2000/svg">
<g clip-path="url(#clip0_105_316)">
<path d="M12.8058 12.2838C12.5515 12.3942 12.2773 12.4512 12.0001 12.4512C11.7229 12.4512 11.4486 12.3942 11.1944 12.2838L1.42294 7.75808C1.26427 7.67805 1.13092 7.55554 1.03776 7.40421C0.944593 7.25287 0.895264 7.07865 0.895264 6.90093C0.895264 6.72322 0.944593 6.549 1.03776 6.39766C1.13092 6.24633 1.26427 6.12382 1.42294 6.04379L11.1944 1.48379C11.4486 1.37338 11.7229 1.31641 12.0001 1.31641C12.2773 1.31641 12.5515 1.37338 12.8058 1.48379L22.5772 6.00951C22.7359 6.08954 22.8692 6.21204 22.9624 6.36338C23.0556 6.51471 23.1049 6.68894 23.1049 6.86665C23.1049 7.04436 23.0556 7.21859 22.9624 7.36992C22.8692 7.52126 22.7359 7.64376 22.5772 7.72379L12.8058 12.2838Z" stroke="white" stroke-width="1.5" stroke-linecap="round" stroke-linejoin="round"/>
<path d="M23.1429 13.0547L12.6857 17.8718C12.4624 17.9737 12.2198 18.0264 11.9743 18.0264C11.7288 18.0264 11.4862 17.9737 11.2629 17.8718L0.857178 13.0547" stroke="white" stroke-width="1.5" stroke-linecap="round" stroke-linejoin="round"/>
<path d="M23.1429 18.625L12.6857 23.4421C12.4624 23.544 12.2198 23.5967 11.9743 23.5967C11.7288 23.5967 11.4862 23.544 11.2629 23.4421L0.857178 18.625" stroke="white" stroke-width="1.5" stroke-linecap="round" stroke-linejoin="round"/>
</g>
<defs>
<clipPath id="clip0_105_316">
<rect width="24" height="24" fill="white" transform="translate(0 0.457031)"/>
</clipPath>
</defs>
</svg>
