<svg width="20" height="21" viewBox="0 0 20 21" fill="none" xmlns="http://www.w3.org/2000/svg">
<path d="M17.6142 10.0562L15.3426 9.40707C14.3196 9.11866 13.3877 8.57254 12.6362 7.82098C11.8846 7.06942 11.3385 6.13756 11.0501 5.11457L10.4009 2.8429C10.3683 2.76342 10.3127 2.69544 10.2413 2.6476C10.17 2.59976 10.086 2.57422 10.0001 2.57422C9.91415 2.57422 9.83016 2.59976 9.75879 2.6476C9.68742 2.69544 9.63188 2.76342 9.59924 2.8429L8.95007 5.11457C8.66166 6.13756 8.11555 7.06942 7.36398 7.82098C6.61242 8.57254 5.68056 9.11866 4.65757 9.40707L2.3859 10.0562C2.29868 10.081 2.22191 10.1335 2.16725 10.2059C2.11258 10.2782 2.08301 10.3664 2.08301 10.4571C2.08301 10.5477 2.11258 10.6359 2.16725 10.7083C2.22191 10.7806 2.29868 10.8331 2.3859 10.8579L4.65757 11.5071C5.68056 11.7955 6.61242 12.3416 7.36398 13.0932C8.11555 13.8447 8.66166 14.7766 8.95007 15.7996L9.59924 18.0712C9.62399 18.1585 9.67653 18.2352 9.74887 18.2899C9.8212 18.3446 9.9094 18.3741 10.0001 18.3741C10.0907 18.3741 10.1789 18.3446 10.2513 18.2899C10.3236 18.2352 10.3761 18.1585 10.4009 18.0712L11.0501 15.7996C11.3385 14.7766 11.8846 13.8447 12.6362 13.0932C13.3877 12.3416 14.3196 11.7955 15.3426 11.5071L17.6142 10.8579C17.7015 10.8331 17.7782 10.7806 17.8329 10.7083C17.8876 10.6359 17.9171 10.5477 17.9171 10.4571C17.9171 10.3664 17.8876 10.2782 17.8329 10.2059C17.7782 10.1335 17.7015 10.081 17.6142 10.0562Z" fill="url(#paint0_linear_105_1450)"/>
<defs>
<linearGradient id="paint0_linear_105_1450" x1="2.12324" y1="10.4636" x2="17.9171" y2="10.4655" gradientUnits="userSpaceOnUse">
<stop offset="0.130682" stop-color="#E24C4A"/>
<stop offset="0.782022" stop-color="#386BB7"/>
</linearGradient>
</defs>
</svg>
