<svg width="24" height="25" viewBox="0 0 24 25" fill="none" xmlns="http://www.w3.org/2000/svg">
<g clip-path="url(#clip0_105_327)">
<path d="M5.57146 10.7411C8.17509 10.7411 10.2857 8.63041 10.2857 6.02679C10.2857 3.42316 8.17509 1.3125 5.57146 1.3125C2.96784 1.3125 0.857178 3.42316 0.857178 6.02679C0.857178 8.63041 2.96784 10.7411 5.57146 10.7411Z" stroke="white" stroke-width="1.5" stroke-linecap="round" stroke-linejoin="round"/>
<path d="M18.4286 10.7411C21.0323 10.7411 23.1429 8.63041 23.1429 6.02679C23.1429 3.42316 21.0323 1.3125 18.4286 1.3125C15.825 1.3125 13.7144 3.42316 13.7144 6.02679C13.7144 8.63041 15.825 10.7411 18.4286 10.7411Z" stroke="white" stroke-width="1.5" stroke-linecap="round" stroke-linejoin="round"/>
<path d="M5.57146 23.5965C8.17509 23.5965 10.2857 21.4859 10.2857 18.8823C10.2857 16.2786 8.17509 14.168 5.57146 14.168C2.96784 14.168 0.857178 16.2786 0.857178 18.8823C0.857178 21.4859 2.96784 23.5965 5.57146 23.5965Z" stroke="white" stroke-width="1.5" stroke-linecap="round" stroke-linejoin="round"/>
<path d="M18.4286 23.5965C21.0323 23.5965 23.1429 21.4859 23.1429 18.8823C23.1429 16.2786 21.0323 14.168 18.4286 14.168C15.825 14.168 13.7144 16.2786 13.7144 18.8823C13.7144 21.4859 15.825 23.5965 18.4286 23.5965Z" stroke="white" stroke-width="1.5" stroke-linecap="round" stroke-linejoin="round"/>
</g>
<defs>
<clipPath id="clip0_105_327">
<rect width="24" height="24" fill="white" transform="translate(0 0.457031)"/>
</clipPath>
</defs>
</svg>
