<svg width="30" height="31" viewBox="0 0 30 31" fill="none" xmlns="http://www.w3.org/2000/svg">
<g clip-path="url(#clip0_105_857)">
<path d="M23.7094 19.4932C23.0952 18.8537 22.3544 18.5118 21.5693 18.5118C20.7904 18.5118 20.0433 18.8474 19.4038 19.4869L17.403 21.4814C17.2384 21.3927 17.0737 21.3104 16.9154 21.2281C16.6875 21.1141 16.4722 21.0065 16.2886 20.8925C14.4144 19.7021 12.7112 18.1509 11.0776 16.1437C10.2861 15.1433 9.75429 14.3012 9.36805 13.4464C9.88725 12.9715 10.3685 12.4777 10.837 12.0028C11.0143 11.8255 11.1916 11.6419 11.3689 11.4646C12.6985 10.1349 12.6985 8.41271 11.3689 7.08306L9.64032 5.3545C9.44403 5.15822 9.24142 4.9556 9.05147 4.75299C8.67157 4.36042 8.27267 3.95519 7.86111 3.57529C7.24693 2.96745 6.51245 2.64453 5.73999 2.64453C4.96752 2.64453 4.22038 2.96745 3.58721 3.57529C3.58087 3.58162 3.58087 3.58162 3.57454 3.58796L1.42176 5.75973C0.611304 6.57019 0.14909 7.55793 0.0477825 8.70397C-0.104178 10.5528 0.440348 12.2751 0.858241 13.4021C1.88398 16.1691 3.41625 18.7334 5.702 21.4814C8.47528 24.7928 11.8121 27.4078 15.6238 29.2504C17.0801 29.9405 19.0239 30.7573 21.1957 30.8966C21.3286 30.9029 21.4679 30.9093 21.5946 30.9093C23.0572 30.9093 24.2856 30.3837 25.248 29.339C25.2543 29.3263 25.267 29.32 25.2733 29.3073C25.6025 28.9084 25.9824 28.5475 26.3813 28.1613C26.6536 27.9017 26.9322 27.6294 27.2045 27.3445C27.8313 26.6923 28.1606 25.9325 28.1606 25.1537C28.1606 24.3686 27.825 23.6151 27.1855 22.982L23.7094 19.4932ZM25.9761 26.1605C25.9698 26.1605 25.9698 26.1668 25.9761 26.1605C25.7292 26.4264 25.4759 26.667 25.2036 26.933C24.7921 27.3255 24.3742 27.7371 23.9816 28.1993C23.3421 28.8831 22.5887 29.206 21.6009 29.206C21.5059 29.206 21.4046 29.206 21.3096 29.1997C19.4291 29.0794 17.6816 28.3449 16.3709 27.7181C12.7872 25.9832 9.64032 23.5202 7.02532 20.3986C4.86621 17.7963 3.42258 15.3903 2.46649 12.8069C1.87765 11.2303 1.66237 10.002 1.75734 8.84327C1.82066 8.10246 2.10559 7.48829 2.63112 6.96275L4.79023 4.80364C5.10048 4.51238 5.42973 4.35409 5.75265 4.35409C6.15155 4.35409 6.47446 4.5947 6.67708 4.79731C6.68341 4.80364 6.68974 4.80997 6.69607 4.81631C7.08231 5.17721 7.44955 5.55078 7.83578 5.94968C8.03206 6.1523 8.23468 6.35491 8.43729 6.56386L10.1658 8.29241C10.837 8.96357 10.837 9.58408 10.1658 10.2552C9.98223 10.4389 9.80494 10.6225 9.62132 10.7998C9.08946 11.3443 8.58292 11.8508 8.03206 12.3447C8.0194 12.3574 8.00674 12.3637 8.0004 12.3764C7.45588 12.9209 7.55719 13.4528 7.67116 13.8137C7.67749 13.8327 7.68382 13.8516 7.69015 13.8706C8.1397 14.9597 8.77287 15.9854 9.73529 17.2075L9.74162 17.2138C11.4892 19.3666 13.3317 21.0445 15.3642 22.3298C15.6238 22.4944 15.8897 22.6274 16.143 22.754C16.3709 22.868 16.5862 22.9756 16.7698 23.0896C16.7951 23.1023 16.8205 23.1213 16.8458 23.1339C17.0611 23.2416 17.2637 23.2922 17.4726 23.2922C17.9982 23.2922 18.3274 22.963 18.4351 22.8553L20.6005 20.6899C20.8158 20.4746 21.1577 20.215 21.5566 20.215C21.9492 20.215 22.2721 20.4619 22.4683 20.6772C22.4747 20.6836 22.4747 20.6836 22.481 20.6899L25.9698 24.1787C26.622 24.8245 26.622 25.4893 25.9761 26.1605Z" fill="white"/>
<path d="M16.2126 8.04333C17.8715 8.32193 19.3785 9.10706 20.5815 10.3101C21.7845 11.5131 22.5633 13.0201 22.8483 14.679C22.9179 15.0969 23.2788 15.3881 23.6904 15.3881C23.741 15.3881 23.7853 15.3818 23.836 15.3754C24.3045 15.2995 24.6148 14.8562 24.5388 14.3877C24.1969 12.3806 23.2472 10.5507 21.7972 9.10073C20.3472 7.65077 18.5174 6.70101 16.5102 6.3591C16.0417 6.28312 15.6048 6.59337 15.5225 7.05559C15.4402 7.5178 15.7441 7.96735 16.2126 8.04333Z" fill="white"/>
<path d="M29.9652 14.1438C29.4016 10.8386 27.844 7.83108 25.4507 5.43769C23.0573 3.04431 20.0497 1.48671 16.7446 0.923188C16.2823 0.840876 15.8455 1.15746 15.7631 1.61968C15.6872 2.08822 15.9974 2.52511 16.466 2.60742C19.4165 3.10763 22.1075 4.50693 24.2476 6.64072C26.3877 8.78083 27.7807 11.4718 28.2809 14.4224C28.3506 14.8403 28.7115 15.1315 29.123 15.1315C29.1737 15.1315 29.218 15.1252 29.2687 15.1189C29.7309 15.0492 30.0475 14.606 29.9652 14.1438Z" fill="white"/>
</g>
<defs>
<clipPath id="clip0_105_857">
<rect width="30" height="30" fill="white" transform="translate(0 0.910156)"/>
</clipPath>
</defs>
</svg>
