<svg width="25" height="26" viewBox="0 0 25 26" fill="none" xmlns="http://www.w3.org/2000/svg">
<g clip-path="url(#clip0_196_4450)">
<mask id="path-1-inside-1_196_4450" fill="white">
<path d="M16.6736 17.0588C19.3339 12.8844 18.9995 13.4052 19.0762 13.2963C20.0447 11.9302 20.5566 10.3224 20.5566 8.64648C20.5566 4.20215 16.9501 0.541016 12.5 0.541016C8.06436 0.541016 4.44336 4.19492 4.44336 8.64648C4.44336 10.3213 4.96602 11.9712 5.96631 13.3558L8.32627 17.0589C5.80308 17.4466 1.51367 18.6021 1.51367 21.1465C1.51367 22.074 2.11904 23.3958 5.00303 24.4257C7.0168 25.1449 9.67925 25.541 12.5 25.541C17.7747 25.541 23.4863 24.0531 23.4863 21.1465C23.4863 18.6017 19.202 17.4474 16.6736 17.0588ZM7.18989 12.55C7.18184 12.5375 7.17344 12.5251 7.16465 12.513C6.33227 11.3679 5.9082 10.0108 5.9082 8.64648C5.9082 4.9835 8.85771 2.00586 12.5 2.00586C16.1347 2.00586 19.0918 4.98481 19.0918 8.64648C19.0918 10.013 18.6757 11.3241 17.8884 12.439C17.8178 12.5321 18.1859 11.9602 12.5 20.8823L7.18989 12.55ZM12.5 24.0762C6.73857 24.0762 2.97852 22.3827 2.97852 21.1465C2.97852 20.3156 4.91055 18.9495 9.1918 18.4169L11.8823 22.6388C12.0168 22.8498 12.2497 22.9775 12.5 22.9775C12.7502 22.9775 12.9832 22.8498 13.1176 22.6388L15.8081 18.4169C20.0894 18.9495 22.0215 20.3156 22.0215 21.1465C22.0215 22.3722 18.2953 24.0762 12.5 24.0762Z"/>
</mask>
<path d="M16.6736 17.0588L14.987 15.984L13.3391 18.5698L16.3698 19.0356L16.6736 17.0588ZM19.0762 13.2963L17.4446 12.1396L17.4411 12.1446L19.0762 13.2963ZM5.96631 13.3558L7.65292 12.2809L7.6216 12.2317L7.58747 12.1845L5.96631 13.3558ZM8.32627 17.0589L8.63005 19.0357L11.6609 18.5699L10.0129 15.984L8.32627 17.0589ZM5.00303 24.4257L4.33036 26.3092H4.33037L5.00303 24.4257ZM7.18989 12.55L8.8765 11.4752L8.87479 11.4725L7.18989 12.55ZM7.16465 12.513L8.78325 11.3382L8.78242 11.3371L7.16465 12.513ZM17.8884 12.439L19.4821 13.6473L19.5026 13.6203L19.5221 13.5927L17.8884 12.439ZM12.5 20.8823L10.8134 21.9571L12.5 24.6037L14.1866 21.9571L12.5 20.8823ZM9.1918 18.4169L10.8784 17.3421L10.1992 16.2762L8.94493 16.4322L9.1918 18.4169ZM11.8823 22.6388L13.569 21.564L13.5689 21.5639L11.8823 22.6388ZM13.1176 22.6388L11.431 21.5639L11.4308 21.5641L13.1176 22.6388ZM15.8081 18.4169L16.0549 16.4322L14.8007 16.2762L14.1214 17.3421L15.8081 18.4169ZM16.6736 17.0588L18.3603 18.1337C21.0523 13.9094 20.6701 14.5064 20.7113 14.448L19.0762 13.2963L17.4411 12.1446C17.4626 12.1141 17.486 12.0842 17.4851 12.0853C17.4341 12.1504 17.3971 12.2056 17.375 12.2389C17.342 12.2887 17.2816 12.3831 17.1577 12.5773C16.8989 12.9829 16.3163 13.8982 14.987 15.984L16.6736 17.0588ZM19.0762 13.2963L20.7077 14.4531C21.9162 12.7486 22.5566 10.7365 22.5566 8.64648H20.5566H18.5566C18.5566 9.90827 18.1733 11.1119 17.4446 12.1396L19.0762 13.2963ZM20.5566 8.64648H22.5566C22.5566 3.11427 18.0713 -1.45898 12.5 -1.45898V0.541016V2.54102C15.829 2.54102 18.5566 5.29003 18.5566 8.64648H20.5566ZM12.5 0.541016V-1.45898C6.94666 -1.45898 2.44336 3.10353 2.44336 8.64648H4.44336H6.44336C6.44336 5.28632 9.18205 2.54102 12.5 2.54102V0.541016ZM4.44336 8.64648H2.44336C2.44336 10.7373 3.09595 12.798 4.34515 14.527L5.96631 13.3558L7.58747 12.1845C6.83608 11.1445 6.44336 9.90526 6.44336 8.64648H4.44336ZM5.96631 13.3558L4.27969 14.4306L6.63965 18.1337L8.32627 17.0589L10.0129 15.984L7.65292 12.2809L5.96631 13.3558ZM8.32627 17.0589L8.02249 15.0821C6.67576 15.289 4.75738 15.7121 3.11969 16.4855C1.64192 17.1834 -0.486328 18.6003 -0.486328 21.1465H1.51367H3.51367C3.51367 21.1293 3.50435 21.0472 3.68411 20.855C3.88937 20.6355 4.25908 20.371 4.82785 20.1024C5.96567 19.5651 7.45359 19.2165 8.63005 19.0357L8.32627 17.0589ZM1.51367 21.1465H-0.486328C-0.486328 22.0903 -0.161626 23.1284 0.682831 24.0773C1.49063 24.985 2.69508 25.7252 4.33036 26.3092L5.00303 24.4257L5.67569 22.5422C4.42699 22.0963 3.88676 21.6606 3.67088 21.4181C3.56828 21.3028 3.53531 21.2278 3.52507 21.2006C3.5146 21.1728 3.51367 21.1569 3.51367 21.1465H1.51367ZM5.00303 24.4257L4.33037 26.3092C6.61657 27.1257 9.51892 27.541 12.5 27.541V25.541V23.541C9.83958 23.541 7.41703 23.1641 5.67569 22.5422L5.00303 24.4257ZM12.5 25.541V27.541C15.2893 27.541 18.2746 27.1519 20.6357 26.3201C21.8101 25.9064 22.9541 25.3404 23.8388 24.5554C24.7479 23.7488 25.4863 22.6053 25.4863 21.1465H23.4863H21.4863C21.4863 21.1684 21.4841 21.1937 21.4577 21.2442C21.4262 21.3046 21.3511 21.4152 21.1841 21.5634C20.833 21.8748 20.2195 22.2258 19.3066 22.5474C17.4932 23.1862 14.9854 23.541 12.5 23.541V25.541ZM23.4863 21.1465H25.4863C25.4863 18.601 23.3607 17.1841 21.8823 16.4857C20.245 15.7123 18.3264 15.2894 16.9774 15.082L16.6736 17.0588L16.3698 19.0356C17.5492 19.2169 19.0369 19.5654 20.1739 20.1025C20.7422 20.3709 21.1112 20.6351 21.316 20.8543C21.4953 21.0461 21.4863 21.1284 21.4863 21.1465H23.4863ZM7.18989 12.55L8.87479 11.4725C8.84525 11.4263 8.8147 11.3816 8.78325 11.3382L7.16465 12.513L5.54605 13.6878C5.53217 13.6687 5.51842 13.6486 5.50499 13.6276L7.18989 12.55ZM7.16465 12.513L8.78242 11.3371C8.20342 10.5406 7.9082 9.59678 7.9082 8.64648H5.9082H3.9082C3.9082 10.4248 4.46113 12.1953 5.54688 13.689L7.16465 12.513ZM5.9082 8.64648H7.9082C7.9082 6.07289 9.9774 4.00586 12.5 4.00586V2.00586V0.00585938C7.73803 0.00585938 3.9082 3.8941 3.9082 8.64648H5.9082ZM12.5 2.00586V4.00586C15.0163 4.00586 17.0918 6.07545 17.0918 8.64648H19.0918H21.0918C21.0918 3.89418 17.2532 0.00585938 12.5 0.00585938V2.00586ZM19.0918 8.64648H17.0918C17.0918 9.60027 16.8034 10.5082 16.2547 11.2853L17.8884 12.439L19.5221 13.5927C20.548 12.1399 21.0918 10.4257 21.0918 8.64648H19.0918ZM17.8884 12.439L16.2946 11.2307C16.3179 11.2 16.3386 11.1752 16.3381 11.1758C16.3204 11.1972 16.29 11.2346 16.2533 11.2849C16.2087 11.3461 16.1661 11.4118 16.1392 11.4531C16.0692 11.5609 15.9253 11.7857 15.6137 12.2743C14.986 13.2586 13.6558 15.3473 10.8134 19.8074L12.5 20.8823L14.1866 21.9571C17.0302 17.4952 18.3589 15.4088 18.9862 14.4252C19.3021 13.9299 19.4348 13.7226 19.4933 13.6326C19.5307 13.5751 19.5153 13.6004 19.4863 13.6403C19.4574 13.6799 19.4319 13.7113 19.4193 13.7265C19.4168 13.7296 19.4284 13.7156 19.4404 13.7007C19.4543 13.6835 19.4681 13.6658 19.4821 13.6473L17.8884 12.439ZM12.5 20.8823L14.1866 19.8074L8.8765 11.4752L7.18989 12.55L5.50328 13.6249L10.8134 21.9571L12.5 20.8823ZM12.5 24.0762V22.0762C9.79927 22.0762 7.64722 21.6772 6.23621 21.1861C5.5203 20.9369 5.07798 20.6926 4.85768 20.527C4.53004 20.2807 4.97852 20.4632 4.97852 21.1465H2.97852H0.978516C0.978516 22.4478 1.897 23.3056 2.45441 23.7245C3.11917 24.2242 3.97695 24.635 4.92123 24.9637C6.83061 25.6284 9.43931 26.0762 12.5 26.0762V24.0762ZM2.97852 21.1465H4.97852C4.97852 21.695 4.69017 21.9316 4.77614 21.8438C4.82286 21.7961 4.99527 21.6492 5.37816 21.4567C6.13435 21.0764 7.45055 20.6489 9.43866 20.4016L9.1918 18.4169L8.94493 16.4322C6.65179 16.7175 4.86136 17.2393 3.58122 17.883C2.94594 18.2024 2.36776 18.5862 1.91844 19.0449C1.50837 19.4636 0.978516 20.1826 0.978516 21.1465H2.97852ZM9.1918 18.4169L7.50518 19.4918L10.1957 23.7136L11.8823 22.6388L13.5689 21.5639L10.8784 17.3421L9.1918 18.4169ZM11.8823 22.6388L10.1956 23.7135C10.6974 24.501 11.5665 24.9775 12.5 24.9775V22.9775V20.9775C12.9329 20.9775 13.3362 21.1986 13.569 21.564L11.8823 22.6388ZM12.5 22.9775V24.9775C13.4334 24.9775 14.3026 24.501 14.8043 23.7134L13.1176 22.6388L11.4308 21.5641C11.6637 21.1985 12.067 20.9775 12.5 20.9775V22.9775ZM13.1176 22.6388L14.8042 23.7136L17.4947 19.4918L15.8081 18.4169L14.1214 17.3421L11.431 21.5639L13.1176 22.6388ZM15.8081 18.4169L15.5612 20.4016C17.5494 20.6489 18.8656 21.0764 19.6218 21.4567C20.0047 21.6492 20.1771 21.7961 20.2239 21.8438C20.3099 21.9316 20.0215 21.695 20.0215 21.1465H22.0215H24.0215C24.0215 20.1825 23.4916 19.4636 23.0815 19.0449C22.6322 18.5862 22.054 18.2024 21.4187 17.883C20.1386 17.2393 18.3481 16.7175 16.0549 16.4322L15.8081 18.4169ZM22.0215 21.1465H20.0215C20.0215 20.4633 20.4687 20.2797 20.1436 20.5252C19.9257 20.6897 19.4866 20.9337 18.7736 21.1831C17.3683 21.6747 15.2174 22.0762 12.5 22.0762V24.0762V26.0762C15.5778 26.0762 18.1877 25.6257 20.0943 24.9588C21.0373 24.629 21.8919 24.2172 22.5538 23.7175C23.1085 23.2987 24.0215 22.4425 24.0215 21.1465H22.0215Z" fill="white" mask="url(#path-1-inside-1_196_4450)"/>
<mask id="path-3-inside-2_196_4450" fill="white">
<path d="M12.5 4.98047C10.4807 4.98047 8.83789 6.62329 8.83789 8.64258C8.83789 10.6619 10.4807 12.3047 12.5 12.3047C14.5193 12.3047 16.1621 10.6619 16.1621 8.64258C16.1621 6.62329 14.5193 4.98047 12.5 4.98047ZM12.5 10.8398C11.2884 10.8398 10.3027 9.85415 10.3027 8.64258C10.3027 7.43101 11.2884 6.44531 12.5 6.44531C13.7116 6.44531 14.6973 7.43101 14.6973 8.64258C14.6973 9.85415 13.7116 10.8398 12.5 10.8398Z"/>
</mask>
<path d="M12.5 4.98047V2.98047C9.37614 2.98047 6.83789 5.51872 6.83789 8.64258H8.83789H10.8379C10.8379 7.72786 11.5853 6.98047 12.5 6.98047V4.98047ZM8.83789 8.64258H6.83789C6.83789 11.7664 9.37614 14.3047 12.5 14.3047V12.3047V10.3047C11.5853 10.3047 10.8379 9.5573 10.8379 8.64258H8.83789ZM12.5 12.3047V14.3047C15.6239 14.3047 18.1621 11.7664 18.1621 8.64258H16.1621H14.1621C14.1621 9.5573 13.4147 10.3047 12.5 10.3047V12.3047ZM16.1621 8.64258H18.1621C18.1621 5.51872 15.6239 2.98047 12.5 2.98047V4.98047V6.98047C13.4147 6.98047 14.1621 7.72786 14.1621 8.64258H16.1621ZM12.5 10.8398V8.83984C12.393 8.83984 12.3027 8.74958 12.3027 8.64258H10.3027H8.30273C8.30273 10.9587 10.1839 12.8398 12.5 12.8398V10.8398ZM10.3027 8.64258H12.3027C12.3027 8.53558 12.393 8.44531 12.5 8.44531V6.44531V4.44531C10.1839 4.44531 8.30273 6.32644 8.30273 8.64258H10.3027ZM12.5 6.44531V8.44531C12.607 8.44531 12.6973 8.53558 12.6973 8.64258H14.6973H16.6973C16.6973 6.32644 14.8161 4.44531 12.5 4.44531V6.44531ZM14.6973 8.64258H12.6973C12.6973 8.74958 12.607 8.83984 12.5 8.83984V10.8398V12.8398C14.8161 12.8398 16.6973 10.9587 16.6973 8.64258H14.6973Z" fill="white" mask="url(#path-3-inside-2_196_4450)"/>
</g>
<defs>
<clipPath id="clip0_196_4450">
<rect width="25" height="25" fill="white" transform="translate(0 0.541016)"/>
</clipPath>
</defs>
</svg>
