<svg width="20" height="21" viewBox="0 0 20 21" fill="none" xmlns="http://www.w3.org/2000/svg">
<path d="M12.6831 10.5151L9.14154 14.0567L7.31689 12.2321C7.07275 11.9879 6.67725 11.9879 6.43311 12.2321C6.18896 12.4762 6.18896 12.8717 6.43311 13.1158L8.69965 15.3824C8.82172 15.5045 8.98163 15.5655 9.14154 15.5655C9.30145 15.5655 9.46136 15.5045 9.58344 15.3824L13.5669 11.3989C13.811 11.1548 13.811 10.7593 13.5669 10.5151C13.3228 10.271 12.9272 10.271 12.6831 10.5151Z" fill="#E24C4A"/>
<path d="M15.625 2.93201H14.6875V2.33203C14.6875 1.98688 14.4077 1.70703 14.0625 1.70703C13.7173 1.70703 13.4375 1.98688 13.4375 2.33203V2.93201H6.5625V2.33203C6.5625 1.98688 6.28265 1.70703 5.9375 1.70703C5.59235 1.70703 5.3125 1.98688 5.3125 2.33203V2.93201H4.375C2.65198 2.93201 1.25 4.33398 1.25 6.05701V16.082C1.25 17.8051 2.65198 19.207 4.375 19.207H15.625C17.348 19.207 18.75 17.8051 18.75 16.082V6.05701C18.75 4.33398 17.348 2.93201 15.625 2.93201ZM2.5 6.05701C2.5 5.02307 3.34106 4.18201 4.375 4.18201H5.3125V4.78168C5.3125 5.12683 5.59235 5.40668 5.9375 5.40668C6.28265 5.40668 6.5625 5.12683 6.5625 4.78168V4.18201H13.4375V4.78168C13.4375 5.12683 13.7173 5.40668 14.0625 5.40668C14.4077 5.40668 14.6875 5.12683 14.6875 4.78168V4.18201H15.625C16.6589 4.18201 17.5 5.02307 17.5 6.05701V6.68811H2.5V6.05701ZM15.625 17.957H4.375C3.34106 17.957 2.5 17.116 2.5 16.082V7.93811H17.5V16.082C17.5 17.116 16.6589 17.957 15.625 17.957Z" fill="#E24C4A"/>
</svg>
