<svg width="40" height="41" viewBox="0 0 40 41" fill="none" xmlns="http://www.w3.org/2000/svg">
<path d="M12.8573 37.4607C19.1691 37.4607 24.2859 32.3439 24.2859 26.0321C24.2859 19.7203 19.1691 14.6035 12.8573 14.6035C6.54546 14.6035 1.42871 19.7203 1.42871 26.0321C1.42871 32.3439 6.54546 37.4607 12.8573 37.4607Z" stroke="#E24C4A" stroke-width="1.5" stroke-linecap="round" stroke-linejoin="round"/>
<path d="M27.1434 37.4607C33.4552 37.4607 38.572 32.3439 38.572 26.0321C38.572 19.7203 33.4552 14.6035 27.1434 14.6035C20.8316 14.6035 15.7148 19.7203 15.7148 26.0321C15.7148 32.3439 20.8316 37.4607 27.1434 37.4607Z" stroke="#E24C4A" stroke-width="1.5" stroke-linecap="round" stroke-linejoin="round"/>
<path d="M19.9999 26.0329C26.3117 26.0329 31.4284 20.9162 31.4284 14.6044C31.4284 8.29253 26.3117 3.17578 19.9999 3.17578C13.688 3.17578 8.57129 8.29253 8.57129 14.6044C8.57129 20.9162 13.688 26.0329 19.9999 26.0329Z" stroke="#E24C4A" stroke-width="1.5" stroke-linecap="round" stroke-linejoin="round"/>
</svg>
