<svg width="30" height="30" viewBox="0 0 30 30" fill="none" xmlns="http://www.w3.org/2000/svg">
<g clip-path="url(#clip0_116_18)">
<path fill-rule="evenodd" clip-rule="evenodd" d="M14.6466 1.01169C14.6934 0.854545 14.8382 0.746094 15.0025 0.746094C15.1668 0.746094 15.3116 0.854545 15.3583 1.01169C15.3583 1.01169 16.0097 3.1949 16.7078 5.53656C17.8201 9.26726 20.7385 12.1856 24.4691 13.2979C26.8108 13.996 28.994 14.6474 28.994 14.6474C29.1512 14.6941 29.2596 14.8389 29.2596 15.0032C29.2596 15.1675 29.1512 15.3123 28.994 15.3591C28.994 15.3591 26.8108 16.0104 24.4691 16.7085C20.7385 17.8209 17.8201 20.7392 16.7078 24.4699C16.0097 26.8115 15.3583 28.9947 15.3583 28.9947C15.3116 29.1519 15.1668 29.2603 15.0025 29.2603C14.8382 29.2603 14.6934 29.1519 14.6466 28.9947C14.6466 28.9947 13.9953 26.8115 13.2972 24.4699C12.1848 20.7392 9.2665 17.8209 5.53582 16.7085C3.19417 16.0104 1.01096 15.3591 1.01096 15.3591C0.853803 15.3123 0.745361 15.1675 0.745361 15.0032C0.745361 14.8389 0.853803 14.6941 1.01096 14.6474C1.01096 14.6474 3.19417 13.996 5.53582 13.2979C9.2665 12.1856 12.1848 9.26726 13.2972 5.53656C13.9953 3.1949 14.6466 1.01169 14.6466 1.01169Z" fill="white"/>
</g>
<defs>
<clipPath id="clip0_116_18">
<rect width="30" height="30" fill="white"/>
</clipPath>
</defs>
</svg>
