<svg width="24" height="24" viewBox="0 0 24 24" fill="none" xmlns="http://www.w3.org/2000/svg">
<g clip-path="url(#clip0_196_3711)">
<path d="M12.806 11.8248C12.5518 11.9352 12.2775 11.9922 12.0003 11.9922C11.7231 11.9922 11.4489 11.9352 11.1946 11.8248L1.42318 7.29909C1.26451 7.21906 1.13117 7.09656 1.038 6.94522C0.944837 6.79389 0.895508 6.61966 0.895508 6.44195C0.895508 6.26424 0.944837 6.09001 1.038 5.93868C1.13117 5.78734 1.26451 5.66484 1.42318 5.58481L11.1946 1.02481C11.4489 0.914396 11.7231 0.857422 12.0003 0.857422C12.2775 0.857422 12.5518 0.914396 12.806 1.02481L22.5775 5.55052C22.7361 5.63055 22.8695 5.75306 22.9626 5.90439C23.0558 6.05573 23.1051 6.22995 23.1051 6.40766C23.1051 6.58538 23.0558 6.7596 22.9626 6.91094C22.8695 7.06227 22.7361 7.18478 22.5775 7.26481L12.806 11.8248Z" stroke="white" stroke-width="1.5" stroke-linecap="round" stroke-linejoin="round"/>
<path d="M23.1431 12.5957L12.686 17.4128C12.4627 17.5147 12.22 17.5674 11.9746 17.5674C11.7291 17.5674 11.4865 17.5147 11.2631 17.4128L0.857422 12.5957" stroke="white" stroke-width="1.5" stroke-linecap="round" stroke-linejoin="round"/>
<path d="M23.1431 18.168L12.686 22.9851C12.4627 23.087 12.22 23.1397 11.9746 23.1397C11.7291 23.1397 11.4865 23.087 11.2631 22.9851L0.857422 18.168" stroke="white" stroke-width="1.5" stroke-linecap="round" stroke-linejoin="round"/>
</g>
<defs>
<clipPath id="clip0_196_3711">
<rect width="24" height="24" fill="white" transform="translate(0 -0.00195312)"/>
</clipPath>
</defs>
</svg>
