<svg width="30" height="31" viewBox="0 0 30 31" fill="none" xmlns="http://www.w3.org/2000/svg">
<path d="M27.3633 5.36328H2.63672C1.1799 5.36328 0 6.55051 0 8V23.8203C0 25.2784 1.18857 26.457 2.63672 26.457H27.3633C28.8079 26.457 30 25.2834 30 23.8203V8C30 6.55309 28.8248 5.36328 27.3633 5.36328ZM26.994 7.12109C26.4553 7.65693 17.1846 16.8789 16.8645 17.1973C16.3664 17.6953 15.7043 17.9696 15 17.9696C14.2957 17.9696 13.6336 17.6953 13.1339 17.1956C12.9186 16.9815 3.75018 7.86137 3.00598 7.12109H26.994ZM1.75781 23.4625V8.35889L9.35379 15.9148L1.75781 23.4625ZM3.00709 24.6992L10.6001 17.1545L11.8926 18.4402C12.7226 19.2703 13.8262 19.7274 15 19.7274C16.1738 19.7274 17.2774 19.2703 18.1058 18.4419L19.3999 17.1545L26.9929 24.6992H3.00709ZM28.2422 23.4625L20.6462 15.9148L28.2422 8.35889V23.4625Z" fill="white"/>
</svg>
