<svg width="40" height="41" viewBox="0 0 40 41" fill="none" xmlns="http://www.w3.org/2000/svg">
<path d="M30.3996 4.71875H9.59964C9.1201 4.73192 8.6504 4.85775 8.2285 5.08607C7.80661 5.31439 7.44437 5.63879 7.17107 6.03304L1.97107 13.233C1.58494 13.7787 1.39211 14.4376 1.42316 15.1054C1.45422 15.7731 1.70739 16.4113 2.14249 16.9188L17.7425 34.8902C18.0096 35.2343 18.3518 35.5128 18.743 35.7044C19.1342 35.896 19.564 35.9956 19.9996 35.9956C20.4352 35.9956 20.8651 35.896 21.2563 35.7044C21.6475 35.5128 21.9897 35.2343 22.2568 34.8902L37.8568 16.9188C38.2919 16.4113 38.5451 15.7731 38.5761 15.1054C38.6072 14.4376 38.4143 13.7787 38.0282 13.233L32.8282 6.03304C32.5549 5.63879 32.1927 5.31439 31.7708 5.08607C31.3489 4.85775 30.8792 4.73192 30.3996 4.71875V4.71875Z" stroke="#E24C4A" stroke-width="1.5" stroke-linecap="round" stroke-linejoin="round"/>
<path d="M18.5144 4.69141L11.543 15.4914L20.0001 35.92" stroke="#E24C4A" stroke-width="1.5" stroke-linecap="round" stroke-linejoin="round"/>
<path d="M21.5714 4.69141L28.5143 15.4914L20 35.92" stroke="#E24C4A" stroke-width="1.5" stroke-linecap="round" stroke-linejoin="round"/>
<path d="M1.48535 15.4922H38.5139" stroke="#E24C4A" stroke-width="1.5" stroke-linecap="round" stroke-linejoin="round"/>
</svg>
