<svg width="24" height="24" viewBox="0 0 24 24" fill="none" xmlns="http://www.w3.org/2000/svg">
<path d="M8.966 3.85742L9.70314 1.95456C9.82746 1.63239 10.0462 1.35527 10.3307 1.1595C10.6151 0.963731 10.9521 0.858442 11.2974 0.857422H12.7031C13.0485 0.858442 13.3854 0.963731 13.6699 1.1595C13.9544 1.35527 14.1731 1.63239 14.2974 1.95456L15.0346 3.85742L17.5374 5.29742L19.5603 4.98885C19.8971 4.94313 20.2399 4.99858 20.5452 5.14815C20.8504 5.29772 21.1043 5.53465 21.2746 5.82885L21.9603 7.02885C22.136 7.32773 22.2169 7.67287 22.1925 8.01871C22.168 8.36456 22.0392 8.69485 21.8231 8.96599L20.5717 10.5603V13.4403L21.8574 15.0346C22.0735 15.3057 22.2023 15.636 22.2267 15.9818C22.2512 16.3277 22.1703 16.6728 21.9946 16.9717L21.3089 18.1717C21.1386 18.4659 20.8847 18.7028 20.5795 18.8524C20.2742 19.002 19.9314 19.0574 19.5946 19.0117L17.5717 18.7031L15.0689 20.1431L14.3317 22.046C14.2074 22.3682 13.9887 22.6453 13.7042 22.8411C13.4197 23.0368 13.0828 23.1421 12.7374 23.1431H11.2974C10.9521 23.1421 10.6151 23.0368 10.3307 22.8411C10.0462 22.6453 9.82746 22.3682 9.70314 22.046L8.966 20.1431L6.46314 18.7031L4.44028 19.0117C4.10345 19.0574 3.76064 19.002 3.45539 18.8524C3.15015 18.7028 2.89626 18.4659 2.726 18.1717L2.04028 16.9717C1.86457 16.6728 1.78361 16.3277 1.8081 15.9818C1.83258 15.636 1.96136 15.3057 2.17742 15.0346L3.42885 13.4403V10.5603L2.14314 8.96599C1.92707 8.69485 1.7983 8.36456 1.77381 8.01871C1.74933 7.67287 1.83028 7.32773 2.006 7.02885L2.69171 5.82885C2.86198 5.53465 3.11587 5.29772 3.42111 5.14815C3.72635 4.99858 4.06917 4.94313 4.406 4.98885L6.42885 5.29742L8.966 3.85742ZM8.57171 12.0003C8.57171 12.6784 8.77279 13.3413 9.14953 13.9051C9.52626 14.4689 10.0617 14.9084 10.6882 15.1679C11.3147 15.4274 12.0041 15.4953 12.6692 15.363C13.3342 15.2307 13.9452 14.9041 14.4246 14.4246C14.9041 13.9451 15.2307 13.3342 15.363 12.6692C15.4953 12.0041 15.4274 11.3147 15.1679 10.6882C14.9084 10.0617 14.4689 9.52626 13.9051 9.14953C13.3413 8.77279 12.6784 8.57171 12.0003 8.57171C11.091 8.57171 10.2189 8.93293 9.57592 9.57591C8.93293 10.2189 8.57171 11.091 8.57171 12.0003V12.0003Z" stroke="white" stroke-width="1.5" stroke-linecap="round" stroke-linejoin="round"/>
</svg>
