<svg width="30" height="31" viewBox="0 0 30 31" fill="none" xmlns="http://www.w3.org/2000/svg">
<g clip-path="url(#clip0_105_879)">
<mask id="mask0_105_879" style="mask-type:luminance" maskUnits="userSpaceOnUse" x="0" y="0" width="30" height="31">
<path d="M0 0.910158H30V30.9102H0V0.910158Z" fill="white"/>
</mask>
<g mask="url(#mask0_105_879)">
<path d="M28.2422 15.9102C28.2422 23.1912 22.2811 29.1523 15 29.1523C7.71892 29.1523 1.75782 23.1912 1.75781 15.9102C1.75781 8.6291 7.71891 2.66796 15 2.66795C22.2811 2.66795 28.2422 8.62909 28.2422 15.9102ZM30 15.9102C30 7.65828 23.2519 0.910141 15 0.910141C6.7481 0.910149 0 7.65828 0 15.9102C7.34386e-06 24.1621 6.74811 30.9101 15 30.9102C23.2519 30.9102 30 24.1621 30 15.9102Z" fill="white"/>
<path d="M6.92076 22.7457C7.264 22.4025 7.82047 22.4025 8.16371 22.7457C8.50695 23.089 8.50695 23.6454 8.16371 23.9887C7.82047 24.3319 7.264 24.3319 6.92076 23.9887C6.57752 23.6454 6.57752 23.089 6.92076 22.7457Z" fill="white"/>
<path d="M21.8363 7.83165C22.1795 7.48841 22.736 7.48841 23.0792 7.83165C23.4225 8.17489 23.4225 8.73136 23.0792 9.0746C22.736 9.41784 22.1795 9.41784 21.8363 9.0746C21.493 8.73136 21.493 8.17489 21.8363 7.83165Z" fill="white"/>
<path d="M8.16371 7.83165C8.50695 8.17489 8.50695 8.73136 8.16371 9.0746C7.82053 9.41784 7.264 9.41784 6.92076 9.0746C6.57752 8.73136 6.57752 8.17489 6.92076 7.83165C7.264 7.48841 7.82053 7.48841 8.16371 7.83165Z" fill="white"/>
<path d="M23.0792 22.7457C23.4225 23.089 23.4225 23.6454 23.0792 23.9887C22.736 24.3319 22.1795 24.3319 21.8363 23.9887C21.493 23.6454 21.493 23.089 21.8363 22.7457C22.1795 22.4025 22.736 22.4025 23.0792 22.7457Z" fill="white"/>
<path d="M14.1211 5.36719V7.125C14.1211 7.61041 14.5146 8.00391 15 8.00391C15.4854 8.00391 15.8789 7.61041 15.8789 7.125V5.36719C15.8789 4.88178 15.4854 4.48828 15 4.48828C14.5146 4.48828 14.1211 4.88178 14.1211 5.36719Z" fill="white"/>
<path d="M14.1211 24.7031V26.4609C14.1211 26.9463 14.5146 27.3398 15 27.3398C15.4854 27.3398 15.8789 26.9463 15.8789 26.4609V24.7031C15.8789 24.2177 15.4854 23.8242 15 23.8242C14.5146 23.8242 14.1211 24.2177 14.1211 24.7031Z" fill="white"/>
<path d="M6.21094 16.793L6.23364 16.7927C6.70855 16.7806 7.08984 16.3919 7.08984 15.9141C7.08984 15.4362 6.70855 15.0475 6.23364 15.0355L6.21094 15.0352H4.45312C3.96772 15.0352 3.57422 15.4287 3.57422 15.9141C3.57422 16.3995 3.96772 16.793 4.45312 16.793H6.21094Z" fill="white"/>
<path d="M25.5469 16.793L25.5696 16.7927C26.0445 16.7806 26.4258 16.3919 26.4258 15.9141C26.4258 15.4362 26.0445 15.0475 25.5696 15.0355L25.5469 15.0352H23.7891C23.3037 15.0352 22.9102 15.4287 22.9102 15.9141C22.9102 16.3995 23.3037 16.793 23.7891 16.793H25.5469Z" fill="white"/>
<path d="M14.1211 10.6406V15.914C14.1211 16.1471 14.2137 16.3707 14.3785 16.5355L19.6519 21.809C19.9952 22.1522 20.5517 22.1522 20.8949 21.809C21.2382 21.4657 21.2382 20.9092 20.8949 20.566L15.8789 15.5499V10.6406C15.8789 10.1552 15.4854 9.7617 15 9.7617C14.5146 9.7617 14.1211 10.1552 14.1211 10.6406Z" fill="white"/>
</g>
</g>
<defs>
<clipPath id="clip0_105_879">
<rect width="30" height="30" fill="white" transform="translate(0 0.910156)"/>
</clipPath>
</defs>
</svg>
