<svg width="50" height="51" viewBox="0 0 50 51" fill="none" xmlns="http://www.w3.org/2000/svg">
<path d="M16.0714 46.8839C23.9611 46.8839 30.3571 40.488 30.3571 32.5982C30.3571 24.7084 23.9611 18.3125 16.0714 18.3125C8.18158 18.3125 1.78564 24.7084 1.78564 32.5982C1.78564 40.488 8.18158 46.8839 16.0714 46.8839Z" stroke="#E24C4A" stroke-width="1.5" stroke-linecap="round" stroke-linejoin="round"/>
<path d="M33.9285 46.8839C41.8183 46.8839 48.2143 40.488 48.2143 32.5982C48.2143 24.7084 41.8183 18.3125 33.9285 18.3125C26.0388 18.3125 19.6428 24.7084 19.6428 32.5982C19.6428 40.488 26.0388 46.8839 33.9285 46.8839Z" stroke="#E24C4A" stroke-width="1.5" stroke-linecap="round" stroke-linejoin="round"/>
<path d="M24.9998 32.5988C32.8896 32.5988 39.2855 26.2028 39.2855 18.3131C39.2855 10.4233 32.8896 4.02734 24.9998 4.02734C17.11 4.02734 10.7141 10.4233 10.7141 18.3131C10.7141 26.2028 17.11 32.5988 24.9998 32.5988Z" stroke="#E24C4A" stroke-width="1.5" stroke-linecap="round" stroke-linejoin="round"/>
</svg>
