<svg width="30" height="30" viewBox="0 0 30 30" fill="none" xmlns="http://www.w3.org/2000/svg">
<path d="M3.21439 12.5879H5.35725C5.64141 12.5879 5.91393 12.6886 6.11486 12.8679C6.31579 13.0472 6.42867 13.2904 6.42867 13.544V18.3247C6.42867 18.5783 6.31579 18.8215 6.11486 19.0008C5.91393 19.1801 5.64141 19.2809 5.35725 19.2809H3.21439C2.64607 19.2809 2.10102 19.0794 1.69916 18.7208C1.2973 18.3622 1.07153 17.8758 1.07153 17.3686V14.5002C1.07153 13.993 1.2973 13.5066 1.69916 13.148C2.10102 12.7894 2.64607 12.5879 3.21439 12.5879V12.5879Z" stroke="white" stroke-width="1.5" stroke-linecap="round" stroke-linejoin="round"/>
<path d="M26.7859 19.2832H24.643C24.3588 19.2832 24.0863 19.1825 23.8854 19.0032C23.6845 18.8238 23.5716 18.5806 23.5716 18.3271V13.5464C23.5716 13.2928 23.6845 13.0496 23.8854 12.8703C24.0863 12.6909 24.3588 12.5902 24.643 12.5902H26.7859C27.3542 12.5902 27.8992 12.7917 28.3011 13.1503C28.7029 13.5089 28.9287 13.9953 28.9287 14.5025V17.3709C28.9287 17.8781 28.7029 18.3645 28.3011 18.7231C27.8992 19.0817 27.3542 19.2832 26.7859 19.2832V19.2832Z" stroke="white" stroke-width="1.5" stroke-linecap="round" stroke-linejoin="round"/>
<path d="M20.3572 24.542C21.4938 24.542 22.5839 24.139 23.3876 23.4218C24.1914 22.7045 24.6429 21.7318 24.6429 20.7174V19.2832" stroke="white" stroke-width="1.5" stroke-linecap="round" stroke-linejoin="round"/>
<path d="M17.6787 22.1504C18.3891 22.1504 19.0705 22.4022 19.5728 22.8505C20.0751 23.2988 20.3573 23.9068 20.3573 24.5407C20.3573 25.1747 20.0751 25.7827 19.5728 26.231C19.0705 26.6793 18.3891 26.9311 17.6787 26.9311H14.4645C13.7541 26.9311 13.0728 26.6793 12.5704 26.231C12.0681 25.7827 11.7859 25.1747 11.7859 24.5407C11.7859 23.9068 12.0681 23.2988 12.5704 22.8505C13.0728 22.4022 13.7541 22.1504 14.4645 22.1504H17.6787Z" stroke="white" stroke-width="1.5" stroke-linecap="round" stroke-linejoin="round"/>
<path d="M5.35718 12.5879V10.6756C5.35718 8.39333 6.37312 6.20454 8.1815 4.59074C9.98989 2.97694 12.4426 2.07031 15 2.07031C17.5575 2.07031 20.0102 2.97694 21.8186 4.59074C23.6269 6.20454 24.6429 8.39333 24.6429 10.6756V12.5879" stroke="white" stroke-width="1.5" stroke-linecap="round" stroke-linejoin="round"/>
<path d="M11.7859 8.76367V11.6321" stroke="white" stroke-width="1.5" stroke-linecap="round" stroke-linejoin="round"/>
<path d="M18.2144 8.76367V11.6321" stroke="white" stroke-width="1.5" stroke-linecap="round" stroke-linejoin="round"/>
<path d="M11.7859 15.4551C11.7859 17.9984 18.2145 17.9984 18.2145 15.4551" stroke="white" stroke-width="1.5" stroke-linecap="round" stroke-linejoin="round"/>
</svg>
