<svg width="20" height="21" viewBox="0 0 20 21" fill="none" xmlns="http://www.w3.org/2000/svg">
<path d="M19.9719 11.5886C19.9719 11.5885 19.9719 11.5885 19.9718 11.5884L16.1958 2.10694C16.1156 1.90549 15.8873 1.80714 15.6858 1.88728C15.6857 1.88733 15.6855 1.88738 15.6854 1.88748L0.366301 7.98739C0.303827 8.01438 0.249648 8.05747 0.209259 8.11224C0.0818582 8.17844 0.00137412 8.30947 0 8.45302V18.6608C0 18.8776 0.175789 19.0534 0.392605 19.0534H16.882C17.0988 19.0534 17.2746 18.8776 17.2746 18.6608V13.0858L19.7528 12.0988C19.9542 12.0184 20.0523 11.79 19.9719 11.5886ZM16.4894 18.2682H0.785211V8.84562H16.4894V18.2682ZM6.55062 8.06238L13.1244 5.44291C13.7111 6.0596 14.524 6.4101 15.3752 6.41343L16.0309 8.06238H6.55062ZM17.2746 12.2424V8.45302C17.2746 8.2362 17.0988 8.06041 16.882 8.06041H16.8757L16.0438 5.97097C16.0346 5.95354 16.0238 5.93696 16.0116 5.9215C15.9695 5.73241 15.7944 5.60339 15.6013 5.61919C14.8094 5.69138 14.0346 5.35777 13.5429 4.73269C13.4206 4.58168 13.2055 4.54414 13.0392 4.64475C13.0206 4.64695 13.0021 4.65039 12.9838 4.65495L4.95821 7.85076C4.86109 7.88884 4.7834 7.96437 4.74267 8.06041H2.30538L15.6116 2.7622L19.0975 11.5153L17.2746 12.2424Z" fill="#E24C4A"/>
<path d="M1.85063 15.6157C2.61288 15.8411 3.20934 16.4368 3.43558 17.1987C3.4852 17.365 3.63816 17.479 3.8117 17.479C3.83206 17.4778 3.85228 17.4747 3.87216 17.47C3.88978 17.475 3.90779 17.4787 3.92594 17.481H13.3485C13.3647 17.4789 13.3807 17.4756 13.3964 17.4712C13.5925 17.5189 13.7902 17.3986 13.838 17.2025C13.8381 17.2017 13.8383 17.201 13.8384 17.2003C14.0641 16.4376 14.6607 15.841 15.4234 15.6154C15.6084 15.5588 15.7233 15.3745 15.6927 15.1835C15.698 15.1644 15.7017 15.145 15.7041 15.1254V11.9845C15.7018 11.9649 15.6979 11.9454 15.6923 11.9264C15.7231 11.7354 15.6081 11.551 15.423 11.4946C14.6603 11.269 14.0638 10.6722 13.8388 9.90923C13.782 9.72298 13.5959 9.60775 13.4038 9.6399C13.3857 9.63484 13.3672 9.63116 13.3485 9.62891H3.92594C3.90617 9.63126 3.88659 9.63519 3.86745 9.64068C3.67649 9.61026 3.49226 9.72514 3.43558 9.91001C3.20978 10.6726 2.61327 11.269 1.85063 11.4946C1.66567 11.5511 1.55073 11.7354 1.58131 11.9264C1.5762 11.9455 1.57252 11.9649 1.57031 11.9845V15.1254C1.57257 15.1438 1.57625 15.1621 1.58131 15.18C1.54911 15.3722 1.66429 15.5586 1.85063 15.6157ZM2.35552 12.1439C3.14387 11.8273 3.76871 11.2025 4.08534 10.4141H13.1887C13.5055 11.2025 14.1304 11.8273 14.9189 12.1439V14.966C14.1308 15.283 13.5061 15.9077 13.1891 16.6958H4.08534C3.76836 15.9077 3.14363 15.283 2.35552 14.966V12.1439Z" fill="#E24C4A"/>
<path d="M8.63688 15.9105C9.93788 15.9105 10.9925 14.8558 10.9925 13.5549C10.9925 12.2539 9.93788 11.1992 8.63688 11.1992C7.33589 11.1992 6.28125 12.2539 6.28125 13.5549C6.28253 14.8553 7.33643 15.9092 8.63688 15.9105ZM8.63688 11.9844C9.5042 11.9844 10.2073 12.6875 10.2073 13.5549C10.2073 14.4222 9.5042 15.1253 8.63688 15.1253C7.76957 15.1253 7.06646 14.4222 7.06646 13.5549C7.06646 12.6875 7.76957 11.9844 8.63688 11.9844Z" fill="#E24C4A"/>
<path d="M4.3184 14.1466C4.64362 14.1466 4.90731 13.8829 4.90731 13.5577C4.90731 13.2324 4.64362 12.9688 4.3184 12.9688C3.99318 12.9688 3.72949 13.2324 3.72949 13.5577C3.72949 13.8829 3.99318 14.1466 4.3184 14.1466ZM4.3184 13.3614C4.42681 13.3614 4.5147 13.4492 4.5147 13.5577C4.5147 13.6661 4.42681 13.754 4.3184 13.754C4.20999 13.754 4.1221 13.6661 4.1221 13.5577C4.1221 13.4492 4.20999 13.3614 4.3184 13.3614Z" fill="#E24C4A"/>
<path d="M12.9561 14.1466C13.2813 14.1466 13.545 13.8829 13.545 13.5577C13.545 13.2324 13.2813 12.9688 12.9561 12.9688C12.6309 12.9688 12.3672 13.2324 12.3672 13.5577C12.3672 13.8829 12.6309 14.1466 12.9561 14.1466ZM12.9561 13.3614C13.0645 13.3614 13.1524 13.4492 13.1524 13.5577C13.1524 13.6661 13.0645 13.754 12.9561 13.754C12.8477 13.754 12.7598 13.6661 12.7598 13.5577C12.7598 13.4492 12.8477 13.3614 12.9561 13.3614Z" fill="#E24C4A"/>
</svg>
