<svg width="50" height="50" viewBox="0 0 50 50" fill="none" xmlns="http://www.w3.org/2000/svg">
<circle cx="25" cy="25" r="25" fill="url(#paint0_linear_778_6002)"/>
<path d="M21.5555 11.4678L10.536 30.5626C9.82134 31.806 9.82134 33.2925 10.536 34.5288C11.2506 35.7722 12.5369 36.5154 13.9733 36.5154H17.6465C19.0615 36.5154 20.3764 35.7579 21.0838 34.5288L21.3411 34.0857C21.4054 34.2358 21.4769 34.3858 21.5627 34.5288C22.2773 35.7722 23.5636 36.5154 25 36.5154H28.6732C30.0881 36.5154 31.403 35.7579 32.1105 34.5288L32.3678 34.0857C32.4321 34.2358 32.5036 34.3858 32.5893 34.5288C33.304 35.7722 34.5903 36.5154 36.0267 36.5154C37.4631 36.5154 38.7494 35.7722 39.464 34.5288C40.1787 33.2853 40.1787 31.7989 39.464 30.5626C38.7494 29.3192 37.4631 28.5759 36.0267 28.5759C35.8623 28.5759 35.698 28.5831 35.5336 28.6045L35.7909 28.1615C36.4983 26.9394 36.4983 25.4173 35.7909 24.1953L33.9543 21.0152C33.2396 19.7717 31.9533 19.0285 30.5169 19.0285C30.3525 19.0285 30.1882 19.0357 30.0238 19.0571L30.2811 18.6141C30.9886 17.392 30.9886 15.8699 30.2811 14.6479L28.4445 11.4749C27.7299 10.2315 26.4435 9.48828 25.0071 9.48828C23.5708 9.48828 22.2844 10.2315 21.5698 11.4749L21.5555 11.4678ZM36.0124 30.1481C36.8771 30.1481 37.656 30.5983 38.0848 31.3487C38.5136 32.099 38.5207 32.9923 38.0848 33.7427C37.6489 34.493 36.8771 34.9433 36.0124 34.9433C35.1477 34.9433 34.3687 34.493 33.94 33.7427C33.5041 32.9923 33.5041 32.099 33.94 31.3487C34.3759 30.5983 35.1477 30.1481 36.0124 30.1481ZM30.5026 20.5936C31.3673 20.5936 32.1463 21.0438 32.575 21.7941L34.4116 24.9742C34.8404 25.7103 34.8404 26.6322 34.4116 27.3682L30.7384 33.7355C30.3097 34.4716 29.5164 34.9361 28.666 34.9361H24.9929C24.1282 34.9361 23.3492 34.4859 22.9204 33.7355C22.4845 32.9852 22.4845 32.0919 22.9204 31.3415L28.4302 21.787C28.8661 21.0366 29.6379 20.5864 30.5026 20.5864V20.5936ZM24.9929 11.0533C25.8576 11.0533 26.6365 11.5035 27.0653 12.2539L28.9019 15.4268C29.3306 16.1629 29.3306 17.0848 28.9019 17.8208L27.0653 21.008L21.5555 30.5555L19.7189 33.7355C19.2901 34.4716 18.4969 34.9361 17.6465 34.9361H13.9733C13.1086 34.9361 12.3297 34.4859 11.9009 33.7355C11.465 32.9852 11.465 32.0919 11.9009 31.3415L22.9204 12.2467C23.3564 11.4964 24.1282 11.0462 24.9929 11.0462V11.0533Z" fill="white"/>
<path d="M17.6396 29.133C17.7611 29.2044 17.8969 29.2402 18.0327 29.2402C18.3042 29.2402 18.5686 29.0973 18.7116 28.8471L23.4352 20.6718C23.6496 20.2931 23.521 19.8143 23.1494 19.5999C22.7706 19.3855 22.2918 19.5141 22.0775 19.8857L17.3538 28.061C17.1394 28.4398 17.268 28.9186 17.6396 29.133Z" fill="white"/>
<path d="M27.5655 31.1057C27.687 31.1772 27.8228 31.2129 27.9586 31.2129C28.2301 31.2129 28.4945 31.07 28.6375 30.8198L30.9171 26.8751C31.1315 26.4964 31.0029 26.0176 30.6313 25.8032C30.2525 25.5888 29.7737 25.7174 29.5593 26.089L27.2797 30.0338C27.0653 30.4125 27.1939 30.8913 27.5655 31.1057Z" fill="white"/>
<defs>
<linearGradient id="paint0_linear_778_6002" x1="0" y1="25" x2="50" y2="25" gradientUnits="userSpaceOnUse">
<stop stop-color="#386BB7"/>
<stop offset="1" stop-color="#E24C4A"/>
</linearGradient>
</defs>
</svg>
