<svg width="183" height="50" viewBox="0 0 183 50" fill="none" xmlns="http://www.w3.org/2000/svg">
<circle cx="25" cy="25" r="25" fill="url(#paint0_linear_778_6001)"/>
<path d="M21.5555 11.4678L10.536 30.5626C9.82134 31.806 9.82134 33.2925 10.536 34.5288C11.2506 35.7722 12.5369 36.5154 13.9733 36.5154H17.6465C19.0615 36.5154 20.3764 35.7579 21.0838 34.5288L21.3411 34.0857C21.4054 34.2358 21.4769 34.3858 21.5627 34.5288C22.2773 35.7722 23.5636 36.5154 25 36.5154H28.6732C30.0881 36.5154 31.403 35.7579 32.1105 34.5288L32.3678 34.0857C32.4321 34.2358 32.5036 34.3858 32.5893 34.5288C33.304 35.7722 34.5903 36.5154 36.0267 36.5154C37.4631 36.5154 38.7494 35.7722 39.464 34.5288C40.1787 33.2853 40.1787 31.7989 39.464 30.5626C38.7494 29.3192 37.4631 28.5759 36.0267 28.5759C35.8623 28.5759 35.698 28.5831 35.5336 28.6045L35.7909 28.1615C36.4983 26.9394 36.4983 25.4173 35.7909 24.1953L33.9543 21.0152C33.2396 19.7717 31.9533 19.0285 30.5169 19.0285C30.3525 19.0285 30.1882 19.0357 30.0238 19.0571L30.2811 18.6141C30.9886 17.392 30.9886 15.8699 30.2811 14.6479L28.4445 11.4749C27.7299 10.2315 26.4435 9.48828 25.0071 9.48828C23.5708 9.48828 22.2844 10.2315 21.5698 11.4749L21.5555 11.4678ZM36.0124 30.1481C36.8771 30.1481 37.656 30.5983 38.0848 31.3487C38.5136 32.099 38.5207 32.9923 38.0848 33.7427C37.6489 34.493 36.8771 34.9433 36.0124 34.9433C35.1477 34.9433 34.3687 34.493 33.94 33.7427C33.5041 32.9923 33.5041 32.099 33.94 31.3487C34.3759 30.5983 35.1477 30.1481 36.0124 30.1481ZM30.5026 20.5936C31.3673 20.5936 32.1463 21.0438 32.575 21.7941L34.4116 24.9742C34.8404 25.7103 34.8404 26.6322 34.4116 27.3682L30.7384 33.7355C30.3097 34.4716 29.5164 34.9361 28.666 34.9361H24.9929C24.1282 34.9361 23.3492 34.4859 22.9204 33.7355C22.4845 32.9852 22.4845 32.0919 22.9204 31.3415L28.4302 21.787C28.8661 21.0366 29.6379 20.5864 30.5026 20.5864V20.5936ZM24.9929 11.0533C25.8576 11.0533 26.6365 11.5035 27.0653 12.2539L28.9019 15.4268C29.3306 16.1629 29.3306 17.0848 28.9019 17.8208L27.0653 21.008L21.5555 30.5555L19.7189 33.7355C19.2901 34.4716 18.4969 34.9361 17.6465 34.9361H13.9733C13.1086 34.9361 12.3297 34.4859 11.9009 33.7355C11.465 32.9852 11.465 32.0919 11.9009 31.3415L22.9204 12.2467C23.3564 11.4964 24.1282 11.0462 24.9929 11.0462V11.0533Z" fill="white"/>
<path d="M17.6396 29.133C17.7611 29.2044 17.8969 29.2402 18.0327 29.2402C18.3042 29.2402 18.5686 29.0973 18.7116 28.8471L23.4352 20.6718C23.6496 20.2931 23.521 19.8143 23.1494 19.5999C22.7706 19.3855 22.2918 19.5141 22.0775 19.8857L17.3538 28.061C17.1394 28.4398 17.268 28.9186 17.6396 29.133Z" fill="white"/>
<path d="M27.5655 31.1057C27.687 31.1772 27.8228 31.2129 27.9586 31.2129C28.2301 31.2129 28.4945 31.07 28.6375 30.8198L30.9171 26.8751C31.1315 26.4964 31.0029 26.0176 30.6313 25.8032C30.2525 25.5888 29.7737 25.7174 29.5593 26.089L27.2797 30.0338C27.0653 30.4125 27.1939 30.8913 27.5655 31.1057Z" fill="white"/>
<path d="M65.7992 34V16.72H69.1112L76.6232 28.24V16.72H79.9352V34H76.6232L69.1112 22.48V34H65.7992ZM88.8276 34.36C87.4996 34.36 86.3276 34.076 85.3116 33.508C84.3036 32.932 83.5116 32.144 82.9356 31.144C82.3676 30.136 82.0836 28.984 82.0836 27.688C82.0836 26.272 82.3636 25.04 82.9236 23.992C83.4836 22.944 84.2556 22.132 85.2396 21.556C86.2236 20.972 87.3556 20.68 88.6356 20.68C89.9956 20.68 91.1516 21 92.1036 21.64C93.0556 22.28 93.7596 23.18 94.2156 24.34C94.6716 25.5 94.8316 26.864 94.6956 28.432H91.4676V27.232C91.4676 25.912 91.2556 24.964 90.8316 24.388C90.4156 23.804 89.7316 23.512 88.7796 23.512C87.6676 23.512 86.8476 23.852 86.3196 24.532C85.7996 25.204 85.5396 26.2 85.5396 27.52C85.5396 28.728 85.7996 29.664 86.3196 30.328C86.8476 30.984 87.6196 31.312 88.6356 31.312C89.2756 31.312 89.8236 31.172 90.2796 30.892C90.7356 30.612 91.0836 30.208 91.3236 29.68L94.5876 30.616C94.0996 31.8 93.3276 32.72 92.2716 33.376C91.2236 34.032 90.0756 34.36 88.8276 34.36ZM84.5316 28.432V26.008H93.1236V28.432H84.5316ZM95.0164 34L99.6484 27.448L95.1124 21.04H98.9524L101.544 24.88L104.088 21.04H107.928L103.392 27.448L108.048 34H104.208L101.544 30.016L98.8564 34H95.0164ZM117.276 34C116.38 34.168 115.5 34.24 114.636 34.216C113.78 34.2 113.012 34.052 112.332 33.772C111.66 33.484 111.148 33.024 110.796 32.392C110.476 31.8 110.308 31.2 110.292 30.592C110.276 29.976 110.268 29.28 110.268 28.504V17.44H113.532V28.312C113.532 28.816 113.536 29.272 113.544 29.68C113.56 30.08 113.644 30.4 113.796 30.64C114.084 31.096 114.544 31.344 115.176 31.384C115.808 31.424 116.508 31.392 117.276 31.288V34ZM108.06 23.56V21.04H117.276V23.56H108.06ZM135.284 34V26.344C135.284 25.488 135.08 24.824 134.672 24.352C134.272 23.872 133.716 23.632 133.004 23.632C132.548 23.632 132.152 23.74 131.816 23.956C131.48 24.164 131.216 24.46 131.024 24.844C130.84 25.22 130.748 25.656 130.748 26.152L129.38 25.24C129.38 24.352 129.588 23.568 130.004 22.888C130.428 22.208 130.992 21.68 131.696 21.304C132.408 20.92 133.196 20.728 134.06 20.728C135.54 20.728 136.656 21.168 137.408 22.048C138.168 22.92 138.548 24.064 138.548 25.48V34H135.284ZM119.66 34V21.04H122.54V25.336H122.948V34H119.66ZM127.484 34V26.344C127.484 25.488 127.28 24.824 126.872 24.352C126.472 23.872 125.916 23.632 125.204 23.632C124.524 23.632 123.976 23.868 123.56 24.34C123.152 24.804 122.948 25.408 122.948 26.152L121.58 25.192C121.58 24.344 121.792 23.584 122.216 22.912C122.64 22.24 123.208 21.708 123.92 21.316C124.64 20.924 125.444 20.728 126.332 20.728C127.348 20.728 128.18 20.944 128.828 21.376C129.484 21.808 129.968 22.384 130.28 23.104C130.592 23.824 130.748 24.616 130.748 25.48V34H127.484ZM141.428 19.24V16.36H144.692V19.24H141.428ZM141.428 34V21.04H144.692V34H141.428ZM156.642 34V27.88C156.642 27.584 156.626 27.208 156.594 26.752C156.562 26.288 156.462 25.824 156.294 25.36C156.126 24.896 155.85 24.508 155.466 24.196C155.09 23.884 154.554 23.728 153.858 23.728C153.578 23.728 153.278 23.772 152.958 23.86C152.638 23.948 152.338 24.12 152.058 24.376C151.778 24.624 151.546 24.992 151.362 25.48C151.186 25.968 151.098 26.616 151.098 27.424L149.226 26.536C149.226 25.512 149.434 24.552 149.85 23.656C150.266 22.76 150.89 22.036 151.722 21.484C152.562 20.932 153.618 20.656 154.89 20.656C155.906 20.656 156.734 20.828 157.374 21.172C158.014 21.516 158.51 21.952 158.862 22.48C159.222 23.008 159.478 23.56 159.63 24.136C159.782 24.704 159.874 25.224 159.906 25.696C159.938 26.168 159.954 26.512 159.954 26.728V34H156.642ZM147.786 34V21.04H150.69V25.336H151.098V34H147.786ZM167.609 34.36C166.417 34.36 165.373 34.06 164.477 33.46C163.581 32.86 162.881 32.044 162.377 31.012C161.881 29.98 161.633 28.816 161.633 27.52C161.633 26.2 161.885 25.028 162.389 24.004C162.901 22.972 163.617 22.16 164.537 21.568C165.457 20.976 166.537 20.68 167.777 20.68C169.009 20.68 170.045 20.98 170.885 21.58C171.725 22.18 172.361 22.996 172.793 24.028C173.225 25.06 173.441 26.224 173.441 27.52C173.441 28.816 173.221 29.98 172.781 31.012C172.349 32.044 171.701 32.86 170.837 33.46C169.973 34.06 168.897 34.36 167.609 34.36ZM168.137 31.456C168.865 31.456 169.445 31.292 169.877 30.964C170.317 30.636 170.633 30.176 170.825 29.584C171.017 28.992 171.113 28.304 171.113 27.52C171.113 26.736 171.017 26.048 170.825 25.456C170.633 24.864 170.325 24.404 169.901 24.076C169.485 23.748 168.937 23.584 168.257 23.584C167.529 23.584 166.929 23.764 166.457 24.124C165.993 24.476 165.649 24.952 165.425 25.552C165.201 26.144 165.089 26.8 165.089 27.52C165.089 28.248 165.197 28.912 165.413 29.512C165.629 30.104 165.961 30.576 166.409 30.928C166.857 31.28 167.433 31.456 168.137 31.456ZM171.113 34V25.12H170.705V16.72H173.993V34H171.113Z" fill="#E24C4A"/>
<path d="M177.401 34V30.736H180.665V34H177.401Z" fill="white"/>
<defs>
<linearGradient id="paint0_linear_778_6001" x1="0" y1="25" x2="50" y2="25" gradientUnits="userSpaceOnUse">
<stop stop-color="#386BB7"/>
<stop offset="1" stop-color="#E24C4A"/>
</linearGradient>
</defs>
</svg>
