<svg width="42" height="31" viewBox="0 0 42 31" fill="none" xmlns="http://www.w3.org/2000/svg">
<path fill-rule="evenodd" clip-rule="evenodd" d="M33.1364 9.13788C34.656 7.00885 37.5284 4.7169 41.4389 2.80887C42.4551 2.31302 41.9967 0.776161 40.8749 0.91806C32.6586 1.95735 27.3332 5.55577 24.425 10.907C23.3434 12.8973 22.6639 15.0158 22.302 17.1783C22.0634 18.6042 22.0004 19.6743 22.0004 20.9102C22.0004 26.433 26.4775 30.9102 32.0004 30.9102C37.5232 30.9102 42.0004 26.433 42.0004 20.9102C42.0004 15.3873 37.4518 10.907 32.2247 10.907C32.5005 10.1499 32.5667 9.93593 33.1364 9.13788ZM11.1364 9.13788C12.656 7.00885 15.5284 4.7169 19.4389 2.80887C20.4551 2.31302 19.9967 0.776161 18.8749 0.91806C10.6586 1.95735 5.33315 5.55577 2.42503 10.907C1.34342 12.8973 0.663872 15.0158 0.301983 17.1783C0.0633774 18.6042 0.000362396 19.6743 0.000362396 20.9102C0.000362396 26.433 4.47752 30.9102 10.0004 30.9102C15.5232 30.9102 20.0004 26.433 20.0004 20.9102C20.0004 15.3873 15.4518 10.907 10.2247 10.907C10.5005 10.1499 10.5667 9.93593 11.1364 9.13788Z" fill="#E24C4A"/>
</svg>
